<?xml version="1.0" encoding="utf-8"?>
<!-- Generator: Adobe Illustrator 27.5.0, SVG Export Plug-In . SVG Version: 6.00 Build 0)  -->
<svg version="1.1" id="BACKGROUND" xmlns="http://www.w3.org/2000/svg" xmlns:xlink="http://www.w3.org/1999/xlink" x="0px" y="0px"
	 viewBox="0 0 750 500" style="enable-background:new 0 0 750 500;" xml:space="preserve">
<g>
	<rect style="fill:#FFFFFF;" width="750" height="500"/>
	<g>
		<path style="fill:none;stroke:#212121;stroke-width:2;stroke-miterlimit:10;" d="M37.183,396.783c-1.02,0-2.04-0.357-2.86-1.07
			l-12.52-10.893c-1.816-1.579-2.007-4.332-0.427-6.147c1.58-1.815,4.332-2.006,6.147-0.427l9.66,8.405l9.661-8.405
			c1.64-1.426,4.08-1.426,5.72,0l9.662,8.405l9.663-8.405c1.64-1.426,4.08-1.426,5.719,0l9.663,8.406l9.663-8.406
			c1.639-1.426,4.079-1.427,5.719,0l9.665,8.406l9.665-8.406c1.815-1.579,4.568-1.388,6.147,0.428
			c1.579,1.815,1.388,4.568-0.428,6.147l-12.524,10.893c-1.64,1.426-4.08,1.426-5.719,0l-9.664-8.406l-9.663,8.406
			c-1.64,1.426-4.08,1.426-5.719,0l-9.663-8.405l-9.663,8.405c-1.64,1.427-4.08,1.427-5.72,0l-9.662-8.405l-9.661,8.405
			C39.224,396.426,38.203,396.783,37.183,396.783z"/>
	</g>
	<path style="fill:none;stroke:#66BB6A;stroke-width:2;stroke-miterlimit:10;" d="M523.299,154.776
		c-3.797,0-7.195,1.736-9.444,4.456c-2.249-2.72-5.648-4.456-9.444-4.456c-3.797,0-7.195,1.736-9.444,4.456
		c-2.249-2.72-5.647-4.456-9.444-4.456c-3.797,0-7.195,1.736-9.444,4.456c-2.249-2.72-5.648-4.456-9.444-4.456
		c-6.755,0-12.251,5.496-12.251,12.251s5.496,12.251,12.251,12.251c3.797,0,7.195-1.736,9.444-4.456
		c2.249,2.72,5.648,4.456,9.444,4.456c3.797,0,7.195-1.736,9.444-4.456c2.249,2.72,5.648,4.456,9.444,4.456
		c3.797,0,7.195-1.736,9.444-4.456c2.249,2.72,5.647,4.456,9.444,4.456c6.755,0,12.251-5.496,12.251-12.251
		S530.055,154.776,523.299,154.776z M466.634,173.665c-3.66,0-6.638-2.978-6.638-6.638c0-3.66,2.978-6.638,6.638-6.638
		s6.638,2.978,6.638,6.638C473.272,170.687,470.294,173.665,466.634,173.665z M485.523,173.665c-3.66,0-6.638-2.978-6.638-6.638
		c0-3.66,2.978-6.638,6.638-6.638c3.66,0,6.638,2.978,6.638,6.638C492.16,170.687,489.183,173.665,485.523,173.665z
		 M504.411,173.665c-3.66,0-6.638-2.978-6.638-6.638c0-3.66,2.978-6.638,6.638-6.638c3.66,0,6.638,2.978,6.638,6.638
		C511.049,170.687,508.071,173.665,504.411,173.665z M523.299,173.665c-3.66,0-6.638-2.978-6.638-6.638
		c0-3.66,2.978-6.638,6.638-6.638c3.66,0,6.638,2.978,6.638,6.638C529.937,170.687,526.96,173.665,523.299,173.665z"/>
	<g>
		<g>
			<defs>
				<circle id="SVGID_1_" cx="124.003" cy="79.785" r="59"/>
			</defs>
			<clipPath id="SVGID_00000172399963230478114860000011059788981667474820_">
				<use xlink:href="#SVGID_1_"  style="overflow:visible;"/>
			</clipPath>
			<g style="clip-path:url(#SVGID_00000172399963230478114860000011059788981667474820_);">
				
					<circle style="fill:none;stroke:#212121;stroke-width:2;stroke-linecap:round;stroke-linejoin:round;stroke-miterlimit:10;" cx="124.003" cy="79.785" r="59"/>
				
					<circle style="fill:none;stroke:#212121;stroke-width:2;stroke-linecap:round;stroke-linejoin:round;stroke-miterlimit:10;" cx="124.003" cy="88.377" r="59"/>
				
					<circle style="fill:none;stroke:#212121;stroke-width:2;stroke-linecap:round;stroke-linejoin:round;stroke-miterlimit:10;" cx="124.003" cy="96.969" r="59"/>
				
					<circle style="fill:none;stroke:#212121;stroke-width:2;stroke-linecap:round;stroke-linejoin:round;stroke-miterlimit:10;" cx="124.003" cy="105.562" r="59"/>
				
					<circle style="fill:none;stroke:#212121;stroke-width:2;stroke-linecap:round;stroke-linejoin:round;stroke-miterlimit:10;" cx="124.003" cy="114.154" r="59"/>
				
					<circle style="fill:none;stroke:#212121;stroke-width:2;stroke-linecap:round;stroke-linejoin:round;stroke-miterlimit:10;" cx="124.003" cy="122.746" r="59"/>
				
					<circle style="fill:none;stroke:#212121;stroke-width:2;stroke-linecap:round;stroke-linejoin:round;stroke-miterlimit:10;" cx="124.003" cy="131.338" r="59"/>
				
					<circle style="fill:none;stroke:#212121;stroke-width:2;stroke-linecap:round;stroke-linejoin:round;stroke-miterlimit:10;" cx="124.003" cy="139.93" r="59"/>
				
					<circle style="fill:none;stroke:#212121;stroke-width:2;stroke-linecap:round;stroke-linejoin:round;stroke-miterlimit:10;" cx="124.003" cy="148.523" r="59"/>
				
					<circle style="fill:none;stroke:#212121;stroke-width:2;stroke-linecap:round;stroke-linejoin:round;stroke-miterlimit:10;" cx="124.003" cy="157.115" r="59"/>
				
					<circle style="fill:none;stroke:#212121;stroke-width:2;stroke-linecap:round;stroke-linejoin:round;stroke-miterlimit:10;" cx="124.003" cy="165.707" r="59"/>
				
					<circle style="fill:none;stroke:#212121;stroke-width:2;stroke-linecap:round;stroke-linejoin:round;stroke-miterlimit:10;" cx="124.003" cy="174.299" r="59"/>
				
					<circle style="fill:none;stroke:#212121;stroke-width:2;stroke-linecap:round;stroke-linejoin:round;stroke-miterlimit:10;" cx="124.003" cy="182.891" r="59"/>
				
					<circle style="fill:none;stroke:#212121;stroke-width:2;stroke-linecap:round;stroke-linejoin:round;stroke-miterlimit:10;" cx="124.003" cy="191.483" r="59"/>
			</g>
		</g>
		
			<circle style="fill:none;stroke:#212121;stroke-width:2;stroke-linecap:round;stroke-linejoin:round;stroke-miterlimit:10;" cx="124.003" cy="79.785" r="59"/>
	</g>
	<g>
		<path style="fill:#66BB6A;" d="M666.06,229.59v127.268c35.144,0,63.634-28.49,63.634-63.634S701.204,229.59,666.06,229.59z"/>
		<g>
			<g>
				<path style="fill:none;stroke:#FFFFFF;stroke-width:2;stroke-miterlimit:10;" d="M666.06,344.06
					c28.099,0,50.836-22.737,50.836-50.836s-22.737-50.836-50.836-50.836"/>
				<path style="fill:none;stroke:#66BB6A;stroke-width:2;stroke-miterlimit:10;" d="M666.06,242.387
					c-28.099,0-50.836,22.737-50.836,50.836s22.737,50.836,50.836,50.836"/>
				<path style="fill:none;stroke:#FFFFFF;stroke-width:2;stroke-miterlimit:10;" d="M666.06,252.555
					c22.479,0,40.669,18.19,40.669,40.669c0,22.479-18.19,40.669-40.669,40.669"/>
				<path style="fill:none;stroke:#66BB6A;stroke-width:2;stroke-miterlimit:10;" d="M666.06,333.893
					c-22.479,0-40.669-18.19-40.669-40.669c0-22.479,18.19-40.669,40.669-40.669"/>
				<path style="fill:none;stroke:#FFFFFF;stroke-width:2;stroke-miterlimit:10;" d="M666.06,323.725
					c16.859,0,30.502-13.642,30.502-30.502s-13.642-30.502-30.502-30.502"/>
				<path style="fill:none;stroke:#66BB6A;stroke-width:2;stroke-miterlimit:10;" d="M666.06,262.722
					c-16.859,0-30.502,13.642-30.502,30.502s13.642,30.502,30.502,30.502"/>
				<path style="fill:none;stroke:#FFFFFF;stroke-width:2;stroke-miterlimit:10;" d="M666.06,272.889
					c11.24,0,20.334,9.095,20.334,20.335s-9.095,20.335-20.334,20.335"/>
				<path style="fill:none;stroke:#66BB6A;stroke-width:2;stroke-miterlimit:10;" d="M666.06,313.558
					c-11.24,0-20.335-9.095-20.335-20.335s9.095-20.335,20.335-20.335"/>
				<path style="fill:none;stroke:#FFFFFF;stroke-width:2;stroke-miterlimit:10;" d="M666.06,303.391
					c5.62,0,10.167-4.547,10.167-10.167c0-5.62-4.547-10.167-10.167-10.167"/>
				<path style="fill:none;stroke:#66BB6A;stroke-width:2;stroke-miterlimit:10;" d="M655.893,293.224
					c0,5.62,4.547,10.167,10.167,10.167"/>
				<path style="fill:none;stroke:#66BB6A;stroke-width:2;stroke-miterlimit:10;" d="M666.06,283.056
					c-5.62,0-10.167,4.548-10.167,10.167"/>
			</g>
		</g>
	</g>
	<g>
		<circle style="fill:#66BB6A;" cx="445.193" cy="320.778" r="42.209"/>
		<circle style="fill:none;stroke:#66BB6A;stroke-width:6;stroke-miterlimit:10;" cx="323.798" cy="199.383" r="64.712"/>
		<circle style="fill:#212121;" cx="372.415" cy="248" r="97.378"/>
		<path style="fill:none;stroke:#66BB6A;stroke-width:6;stroke-miterlimit:10;" d="M259.086,199.383
			c0-35.739,28.972-64.712,64.712-64.712s64.712,28.972,64.712,64.712"/>
	</g>
	<g>
		<g>
			<path style="fill:none;stroke:#66BB6A;stroke-width:2;stroke-miterlimit:10;" d="M413.924,31.285
				c-0.856,1.922-3.108,2.786-5.03,1.931c-1.922-0.856-2.786-3.108-1.931-5.03c0.856-1.922,3.108-2.786,5.03-1.931
				C413.915,27.111,414.78,29.362,413.924,31.285z"/>
		</g>
		<g>
			<path style="fill:none;stroke:#66BB6A;stroke-width:2;stroke-miterlimit:10;" d="M429.01,45.324
				c-1.564,1.408-3.972,1.282-5.38-0.282c-1.408-1.564-1.282-3.972,0.282-5.38c1.564-1.408,3.973-1.282,5.38,0.282
				C430.7,41.508,430.574,43.916,429.01,45.324z"/>
		</g>
		<g>
			<path style="fill:none;stroke:#66BB6A;stroke-width:2;stroke-miterlimit:10;" d="M437.082,64.286
				c-2.001,0.65-4.15-0.445-4.8-2.446c-0.65-2.001,0.445-4.15,2.446-4.8c2.001-0.65,4.15,0.445,4.8,2.446
				C440.178,61.487,439.083,63.636,437.082,64.286z"/>
		</g>
		<g>
			<path style="fill:none;stroke:#66BB6A;stroke-width:2;stroke-miterlimit:10;" d="M436.743,84.892
				c-2.092-0.22-3.611-2.094-3.391-4.187c0.22-2.092,2.095-3.611,4.187-3.391c2.092,0.22,3.611,2.095,3.391,4.187
				C440.71,83.594,438.836,85.112,436.743,84.892z"/>
		</g>
		<g>
			<path style="fill:none;stroke:#66BB6A;stroke-width:2;stroke-miterlimit:10;" d="M428.052,103.578
				c-1.822-1.052-2.447-3.382-1.394-5.204c1.052-1.822,3.382-2.446,5.204-1.394c1.822,1.052,2.447,3.382,1.395,5.204
				C432.204,104.006,429.875,104.631,428.052,103.578z"/>
		</g>
		<g>
			<path style="fill:none;stroke:#66BB6A;stroke-width:2;stroke-miterlimit:10;" d="M412.513,117.115
				c-1.237-1.702-0.859-4.085,0.843-5.321c1.702-1.237,4.085-0.859,5.321,0.843c1.237,1.702,0.859,4.085-0.843,5.321
				C416.132,119.194,413.749,118.817,412.513,117.115z"/>
		</g>
		<g>
			<path style="fill:none;stroke:#212121;stroke-width:2;stroke-miterlimit:10;" d="M392.811,123.16
				c-0.438-2.058,0.876-4.081,2.934-4.518c2.058-0.438,4.081,0.876,4.519,2.934c0.437,2.058-0.876,4.081-2.934,4.519
				C395.271,126.532,393.248,125.218,392.811,123.16z"/>
		</g>
		<g>
			<path style="fill:none;stroke:#212121;stroke-width:2;stroke-miterlimit:10;" d="M372.353,120.669
				c0.438-2.058,2.461-3.372,4.518-2.934c2.058,0.437,3.372,2.46,2.934,4.519c-0.437,2.058-2.46,3.372-4.518,2.934
				C373.23,124.75,371.916,122.727,372.353,120.669z"/>
		</g>
		<g>
			<path style="fill:none;stroke:#212121;stroke-width:2;stroke-miterlimit:10;" d="M354.678,110.073
				c1.237-1.702,3.619-2.079,5.321-0.843c1.702,1.237,2.08,3.619,0.843,5.321c-1.237,1.702-3.619,2.079-5.321,0.843
				C353.818,114.158,353.441,111.775,354.678,110.073z"/>
		</g>
		<g>
			<path style="fill:none;stroke:#212121;stroke-width:2;stroke-miterlimit:10;" d="M342.84,93.203
				c1.822-1.052,4.152-0.428,5.204,1.394s0.428,4.152-1.394,5.204c-1.822,1.052-4.152,0.428-5.204-1.395
				C340.394,96.585,341.018,94.255,342.84,93.203z"/>
		</g>
		<g>
			<path style="fill:none;stroke:#212121;stroke-width:2;stroke-miterlimit:10;" d="M338.887,72.978
				c2.092-0.22,3.967,1.298,4.187,3.391c0.22,2.092-1.298,3.967-3.391,4.187c-2.092,0.22-3.967-1.298-4.187-3.391
				C335.277,75.072,336.795,73.197,338.887,72.978z"/>
		</g>
		<g>
			<path style="fill:none;stroke:#66BB6A;stroke-width:2;stroke-miterlimit:10;" d="M343.503,52.893
				c2.001,0.65,3.096,2.799,2.446,4.8c-0.65,2.001-2.799,3.096-4.8,2.446c-2.001-0.65-3.096-2.799-2.446-4.8
				C339.353,53.337,341.502,52.242,343.503,52.893z"/>
		</g>
		<g>
			<path style="fill:none;stroke:#66BB6A;stroke-width:2;stroke-miterlimit:10;" d="M355.889,36.421
				c1.564,1.408,1.69,3.817,0.282,5.38c-1.408,1.564-3.817,1.69-5.38,0.282s-1.69-3.817-0.282-5.38
				C351.916,35.14,354.325,35.013,355.889,36.421z"/>
		</g>
		<g>
			<path style="fill:none;stroke:#66BB6A;stroke-width:2;stroke-miterlimit:10;" d="M373.903,26.412
				c0.856,1.922-0.009,4.174-1.931,5.03c-1.922,0.856-4.174-0.009-5.03-1.931c-0.856-1.922,0.009-4.174,1.931-5.03
				C370.795,23.625,373.047,24.49,373.903,26.412z"/>
		</g>
		<g>
			<path style="fill:none;stroke:#66BB6A;stroke-width:2;stroke-miterlimit:10;" d="M394.431,24.595c0,2.104-1.706,3.81-3.81,3.81
				c-2.104,0-3.81-1.706-3.81-3.81c0-2.104,1.706-3.81,3.81-3.81C392.726,20.785,394.431,22.491,394.431,24.595z"/>
		</g>
	</g>
	<g>
		
			<rect x="70.861" y="247.286" transform="matrix(-1.836970e-16 1 -1 -1.836970e-16 418.7033 176.4248)" style="fill:none;stroke:#66BB6A;stroke-width:7;stroke-miterlimit:10;" width="100.556" height="100.556"/>
		
			<rect x="84.97" y="261.395" style="fill:none;stroke:#66BB6A;stroke-width:7;stroke-miterlimit:10;" width="72.339" height="72.339"/>
		
			<rect x="99.078" y="275.503" style="fill:none;stroke:#66BB6A;stroke-width:7;stroke-miterlimit:10;" width="44.122" height="44.122"/>
		
			<rect x="113.187" y="289.612" transform="matrix(-1.836970e-16 1 -1 -1.836970e-16 418.7033 176.4248)" style="fill:none;stroke:#66BB6A;stroke-width:7;stroke-miterlimit:10;" width="15.905" height="15.905"/>
	</g>
	<g>
		
			<rect x="599.131" y="167.57" transform="matrix(0.7071 0.7071 -0.7071 0.7071 320.2321 -385.4471)" style="fill:none;stroke:#212121;stroke-width:2;stroke-miterlimit:10;" width="52.52" height="52.52"/>
		
			<rect x="606.761" y="175.2" transform="matrix(0.7071 -0.7071 0.7071 0.7071 46.1143 498.9897)" style="fill:none;stroke:#212121;stroke-width:2;stroke-miterlimit:10;" width="37.26" height="37.26"/>
		
			<rect x="614.391" y="182.83" transform="matrix(0.7071 -0.7071 0.7071 0.7071 46.1143 498.9897)" style="fill:none;stroke:#212121;stroke-width:2;stroke-miterlimit:10;" width="22" height="22"/>
		
			<rect x="622.021" y="190.46" transform="matrix(0.7071 0.7071 -0.7071 0.7071 320.2374 -385.45)" style="fill:none;stroke:#212121;stroke-width:2;stroke-miterlimit:10;" width="6.74" height="6.74"/>
	</g>
	<g>
		<rect x="139.974" y="410.236" style="fill:#66BB6A;" width="142" height="69.017"/>
		<g>
			<defs>
				
					<rect id="SVGID_00000130607664657990351760000015954868599664509355_" x="158.58" y="388.314" width="152.218" height="43.845"/>
			</defs>
			<clipPath id="SVGID_00000170270354189870314220000004852588969267081630_">
				<use xlink:href="#SVGID_00000130607664657990351760000015954868599664509355_"  style="overflow:visible;"/>
			</clipPath>
			<g style="clip-path:url(#SVGID_00000170270354189870314220000004852588969267081630_);">
				<polygon style="fill:#212121;" points="151.198,432.159 147.634,432.159 144.071,432.159 165.962,410.236 144.071,388.314 
					147.634,388.314 151.198,388.314 173.089,410.236 				"/>
				<polygon style="fill:#212121;" points="165.707,432.159 162.143,432.159 158.58,432.159 180.471,410.236 158.58,388.314 
					162.143,388.314 165.707,388.314 187.598,410.236 				"/>
				<polygon style="fill:#212121;" points="180.216,432.159 176.652,432.159 173.089,432.159 194.98,410.236 173.089,388.314 
					176.652,388.314 180.216,388.314 202.107,410.236 				"/>
				<polygon style="fill:#212121;" points="194.725,432.159 191.161,432.159 187.598,432.159 209.489,410.236 187.598,388.314 
					191.161,388.314 194.725,388.314 216.616,410.236 				"/>
				<polygon style="fill:#212121;" points="209.234,432.159 205.671,432.159 202.107,432.159 223.998,410.236 202.107,388.314 
					205.671,388.314 209.234,388.314 231.125,410.236 				"/>
				<polygon style="fill:#212121;" points="223.743,432.159 220.18,432.159 216.616,432.159 238.507,410.236 216.616,388.314 
					220.18,388.314 223.743,388.314 245.634,410.236 				"/>
				<polygon style="fill:#212121;" points="238.252,432.159 234.689,432.159 231.125,432.159 253.016,410.236 231.125,388.314 
					234.689,388.314 238.252,388.314 260.143,410.236 				"/>
				<polygon style="fill:#212121;" points="252.761,432.159 249.198,432.159 245.634,432.159 267.525,410.236 245.634,388.314 
					249.198,388.314 252.761,388.314 274.652,410.236 				"/>
				<polygon style="fill:#212121;" points="267.271,432.159 263.707,432.159 260.143,432.159 282.034,410.236 260.143,388.314 
					263.707,388.314 267.271,388.314 289.161,410.236 				"/>
				<polygon style="fill:#212121;" points="281.78,432.159 278.216,432.159 274.652,432.159 296.543,410.236 274.652,388.314 
					278.216,388.314 281.78,388.314 303.671,410.236 				"/>
				<polygon style="fill:#212121;" points="296.289,432.159 292.725,432.159 289.161,432.159 311.052,410.236 289.161,388.314 
					292.725,388.314 296.289,388.314 318.18,410.236 				"/>
				<polygon style="fill:#212121;" points="310.798,432.159 307.234,432.159 303.671,432.159 325.561,410.236 303.671,388.314 
					307.234,388.314 310.798,388.314 332.689,410.236 				"/>
			</g>
		</g>
	</g>
	<g>
		<polygon style="fill:#212121;stroke:#FFFFFF;stroke-width:3;stroke-miterlimit:10;" points="520.177,223.599 529.148,208.06 
			538.12,223.599 		"/>
		<polygon style="fill:#212121;stroke:#FFFFFF;stroke-width:3;stroke-miterlimit:10;" points="529.148,239.138 538.12,223.599 
			547.091,239.138 		"/>
		<polygon style="fill:#212121;stroke:#FFFFFF;stroke-width:3;stroke-miterlimit:10;" points="511.205,239.138 520.177,223.599 
			529.148,239.138 		"/>
		<polygon style="fill:#212121;stroke:#FFFFFF;stroke-width:3;stroke-miterlimit:10;" points="538.12,223.599 529.148,239.138 
			520.177,223.599 		"/>
		<polygon style="fill:#212121;stroke:#FFFFFF;stroke-width:3;stroke-miterlimit:10;" points="520.177,254.677 529.148,239.138 
			538.12,254.677 		"/>
		<polygon style="fill:#212121;stroke:#FFFFFF;stroke-width:3;stroke-miterlimit:10;" points="502.234,254.677 511.205,239.138 
			520.177,254.677 		"/>
		<polygon style="fill:#212121;stroke:#FFFFFF;stroke-width:3;stroke-miterlimit:10;" points="529.148,239.138 520.177,254.677 
			511.205,239.138 		"/>
		<polygon style="fill:#212121;stroke:#FFFFFF;stroke-width:3;stroke-miterlimit:10;" points="538.12,254.677 547.091,239.138 
			556.063,254.677 		"/>
		<polygon style="fill:#212121;stroke:#FFFFFF;stroke-width:3;stroke-miterlimit:10;" points="547.091,239.138 538.12,254.677 
			529.148,239.138 		"/>
		<polygon style="fill:#212121;stroke:#FFFFFF;stroke-width:3;stroke-miterlimit:10;" points="511.205,270.216 520.177,254.677 
			529.148,270.216 		"/>
		<polygon style="fill:#212121;stroke:#FFFFFF;stroke-width:3;stroke-miterlimit:10;" points="493.263,270.216 502.234,254.677 
			511.205,270.216 		"/>
		<polygon style="fill:#212121;stroke:#FFFFFF;stroke-width:3;stroke-miterlimit:10;" points="520.177,254.677 511.205,270.216 
			502.234,254.677 		"/>
		<polygon style="fill:#212121;stroke:#FFFFFF;stroke-width:3;stroke-miterlimit:10;" points="529.148,270.216 538.12,254.677 
			547.091,270.216 		"/>
		<polygon style="fill:#212121;stroke:#FFFFFF;stroke-width:3;stroke-miterlimit:10;" points="538.12,254.677 529.148,270.216 
			520.177,254.677 		"/>
		<polygon style="fill:#212121;stroke:#FFFFFF;stroke-width:3;stroke-miterlimit:10;" points="547.091,270.216 556.063,254.677 
			565.034,270.216 		"/>
		<polygon style="fill:#212121;stroke:#FFFFFF;stroke-width:3;stroke-miterlimit:10;" points="556.063,254.677 547.091,270.216 
			538.12,254.677 		"/>
	</g>
	<g>
		<path style="fill:none;stroke:#66BB6A;stroke-width:2;stroke-miterlimit:10;" d="M446.031,410.315c0,1.998-1.62,3.617-3.617,3.617
			s-3.617-1.62-3.617-3.617c0-1.998,1.619-3.617,3.617-3.617S446.031,408.317,446.031,410.315z"/>
		<path style="fill:none;stroke:#212121;stroke-width:2;stroke-linecap:round;stroke-linejoin:round;stroke-miterlimit:10;" d="
			M459.169,410.315c0,1.998-1.62,3.617-3.617,3.617s-3.617-1.62-3.617-3.617c0-1.998,1.62-3.617,3.617-3.617
			S459.169,408.317,459.169,410.315z"/>
		<path style="fill:none;stroke:#212121;stroke-width:2;stroke-linecap:round;stroke-linejoin:round;stroke-miterlimit:10;" d="
			M472.308,410.315c0,1.998-1.62,3.617-3.617,3.617c-1.998,0-3.617-1.62-3.617-3.617c0-1.998,1.62-3.617,3.617-3.617
			C470.688,406.697,472.308,408.317,472.308,410.315z"/>
		<path style="fill:none;stroke:#212121;stroke-width:2;stroke-linecap:round;stroke-linejoin:round;stroke-miterlimit:10;" d="
			M485.446,410.315c0,1.998-1.62,3.617-3.617,3.617c-1.998,0-3.617-1.62-3.617-3.617c0-1.998,1.62-3.617,3.617-3.617
			C483.826,406.697,485.446,408.317,485.446,410.315z"/>
		<path style="fill:none;stroke:#212121;stroke-width:2;stroke-linecap:round;stroke-linejoin:round;stroke-miterlimit:10;" d="
			M498.584,410.315c0,1.998-1.62,3.617-3.617,3.617s-3.617-1.62-3.617-3.617c0-1.998,1.62-3.617,3.617-3.617
			S498.584,408.317,498.584,410.315z"/>
		<path style="fill:none;stroke:#212121;stroke-width:2;stroke-linecap:round;stroke-linejoin:round;stroke-miterlimit:10;" d="
			M511.723,410.315c0,1.998-1.62,3.617-3.617,3.617s-3.617-1.62-3.617-3.617c0-1.998,1.62-3.617,3.617-3.617
			S511.723,408.317,511.723,410.315z"/>
		<path style="fill:none;stroke:#66BB6A;stroke-width:2;stroke-miterlimit:10;" d="M446.031,423.379c0,1.998-1.62,3.617-3.617,3.617
			s-3.617-1.62-3.617-3.617s1.619-3.617,3.617-3.617S446.031,421.381,446.031,423.379z"/>
		<path style="fill:none;stroke:#66BB6A;stroke-width:2;stroke-miterlimit:10;" d="M459.169,423.379c0,1.998-1.62,3.617-3.617,3.617
			s-3.617-1.62-3.617-3.617s1.62-3.617,3.617-3.617S459.169,421.381,459.169,423.379z"/>
		<path style="fill:none;stroke:#212121;stroke-width:2;stroke-linecap:round;stroke-linejoin:round;stroke-miterlimit:10;" d="
			M472.308,423.379c0,1.998-1.62,3.617-3.617,3.617c-1.998,0-3.617-1.62-3.617-3.617s1.62-3.617,3.617-3.617
			C470.688,419.762,472.308,421.381,472.308,423.379z"/>
		<path style="fill:none;stroke:#212121;stroke-width:2;stroke-linecap:round;stroke-linejoin:round;stroke-miterlimit:10;" d="
			M485.446,423.379c0,1.998-1.62,3.617-3.617,3.617c-1.998,0-3.617-1.62-3.617-3.617s1.62-3.617,3.617-3.617
			C483.826,419.762,485.446,421.381,485.446,423.379z"/>
		<path style="fill:none;stroke:#212121;stroke-width:2;stroke-linecap:round;stroke-linejoin:round;stroke-miterlimit:10;" d="
			M498.584,423.379c0,1.998-1.62,3.617-3.617,3.617s-3.617-1.62-3.617-3.617s1.62-3.617,3.617-3.617
			S498.584,421.381,498.584,423.379z"/>
		<path style="fill:none;stroke:#212121;stroke-width:2;stroke-linecap:round;stroke-linejoin:round;stroke-miterlimit:10;" d="
			M511.723,423.379c0,1.998-1.62,3.617-3.617,3.617s-3.617-1.62-3.617-3.617s1.62-3.617,3.617-3.617
			S511.723,421.381,511.723,423.379z"/>
		<path style="fill:none;stroke:#66BB6A;stroke-width:2;stroke-miterlimit:10;" d="M446.031,436.443c0,1.998-1.62,3.617-3.617,3.617
			s-3.617-1.62-3.617-3.617s1.619-3.617,3.617-3.617S446.031,434.445,446.031,436.443z"/>
		<path style="fill:none;stroke:#66BB6A;stroke-width:2;stroke-miterlimit:10;" d="M459.169,436.443c0,1.998-1.62,3.617-3.617,3.617
			s-3.617-1.62-3.617-3.617s1.62-3.617,3.617-3.617S459.169,434.445,459.169,436.443z"/>
		<path style="fill:none;stroke:#66BB6A;stroke-width:2;stroke-miterlimit:10;" d="M472.308,436.443c0,1.998-1.62,3.617-3.617,3.617
			c-1.998,0-3.617-1.62-3.617-3.617s1.62-3.617,3.617-3.617C470.688,432.826,472.308,434.445,472.308,436.443z"/>
		<path style="fill:none;stroke:#212121;stroke-width:2;stroke-linecap:round;stroke-linejoin:round;stroke-miterlimit:10;" d="
			M485.446,436.443c0,1.998-1.62,3.617-3.617,3.617c-1.998,0-3.617-1.62-3.617-3.617s1.62-3.617,3.617-3.617
			C483.826,432.826,485.446,434.445,485.446,436.443z"/>
		<path style="fill:none;stroke:#212121;stroke-width:2;stroke-linecap:round;stroke-linejoin:round;stroke-miterlimit:10;" d="
			M498.584,436.443c0,1.998-1.62,3.617-3.617,3.617s-3.617-1.62-3.617-3.617s1.62-3.617,3.617-3.617
			S498.584,434.445,498.584,436.443z"/>
		<path style="fill:none;stroke:#212121;stroke-width:2;stroke-linecap:round;stroke-linejoin:round;stroke-miterlimit:10;" d="
			M511.723,436.443c0,1.998-1.62,3.617-3.617,3.617s-3.617-1.62-3.617-3.617s1.62-3.617,3.617-3.617
			S511.723,434.445,511.723,436.443z"/>
		<path style="fill:none;stroke:#66BB6A;stroke-width:2;stroke-miterlimit:10;" d="M446.031,449.508c0,1.998-1.62,3.617-3.617,3.617
			s-3.617-1.619-3.617-3.617s1.619-3.617,3.617-3.617S446.031,447.51,446.031,449.508z"/>
		<path style="fill:none;stroke:#66BB6A;stroke-width:2;stroke-miterlimit:10;" d="M459.169,449.508c0,1.998-1.62,3.617-3.617,3.617
			s-3.617-1.619-3.617-3.617s1.62-3.617,3.617-3.617S459.169,447.51,459.169,449.508z"/>
		<path style="fill:none;stroke:#66BB6A;stroke-width:2;stroke-miterlimit:10;" d="M472.308,449.508c0,1.998-1.62,3.617-3.617,3.617
			c-1.998,0-3.617-1.619-3.617-3.617s1.62-3.617,3.617-3.617C470.688,445.89,472.308,447.51,472.308,449.508z"/>
		<path style="fill:none;stroke:#66BB6A;stroke-width:2;stroke-miterlimit:10;" d="M485.446,449.508c0,1.998-1.62,3.617-3.617,3.617
			c-1.998,0-3.617-1.619-3.617-3.617s1.62-3.617,3.617-3.617C483.826,445.89,485.446,447.51,485.446,449.508z"/>
		<path style="fill:none;stroke:#212121;stroke-width:2;stroke-linecap:round;stroke-linejoin:round;stroke-miterlimit:10;" d="
			M498.584,449.508c0,1.998-1.62,3.617-3.617,3.617s-3.617-1.619-3.617-3.617s1.62-3.617,3.617-3.617
			S498.584,447.51,498.584,449.508z"/>
		<path style="fill:none;stroke:#212121;stroke-width:2;stroke-linecap:round;stroke-linejoin:round;stroke-miterlimit:10;" d="
			M511.723,449.508c0,1.998-1.62,3.617-3.617,3.617s-3.617-1.619-3.617-3.617s1.62-3.617,3.617-3.617
			S511.723,447.51,511.723,449.508z"/>
		<path style="fill:none;stroke:#66BB6A;stroke-width:2;stroke-miterlimit:10;" d="M446.031,462.572c0,1.998-1.62,3.617-3.617,3.617
			s-3.617-1.619-3.617-3.617c0-1.998,1.619-3.617,3.617-3.617S446.031,460.574,446.031,462.572z"/>
		<path style="fill:none;stroke:#66BB6A;stroke-width:2;stroke-miterlimit:10;" d="M459.169,462.572c0,1.998-1.62,3.617-3.617,3.617
			s-3.617-1.619-3.617-3.617c0-1.998,1.62-3.617,3.617-3.617S459.169,460.574,459.169,462.572z"/>
		<path style="fill:none;stroke:#66BB6A;stroke-width:2;stroke-miterlimit:10;" d="M472.308,462.572c0,1.998-1.62,3.617-3.617,3.617
			c-1.998,0-3.617-1.619-3.617-3.617c0-1.998,1.62-3.617,3.617-3.617C470.688,458.954,472.308,460.574,472.308,462.572z"/>
		<path style="fill:none;stroke:#66BB6A;stroke-width:2;stroke-miterlimit:10;" d="M485.446,462.572c0,1.998-1.62,3.617-3.617,3.617
			c-1.998,0-3.617-1.619-3.617-3.617c0-1.998,1.62-3.617,3.617-3.617C483.826,458.954,485.446,460.574,485.446,462.572z"/>
		<path style="fill:none;stroke:#66BB6A;stroke-width:2;stroke-miterlimit:10;" d="M498.584,462.572c0,1.998-1.62,3.617-3.617,3.617
			s-3.617-1.619-3.617-3.617c0-1.998,1.62-3.617,3.617-3.617S498.584,460.574,498.584,462.572z"/>
		<path style="fill:none;stroke:#212121;stroke-width:2;stroke-linecap:round;stroke-linejoin:round;stroke-miterlimit:10;" d="
			M511.723,462.572c0,1.998-1.62,3.617-3.617,3.617s-3.617-1.619-3.617-3.617c0-1.998,1.62-3.617,3.617-3.617
			S511.723,460.574,511.723,462.572z"/>
		<path style="fill:none;stroke:#66BB6A;stroke-width:2;stroke-miterlimit:10;" d="M446.031,475.636c0,1.998-1.62,3.617-3.617,3.617
			s-3.617-1.62-3.617-3.617c0-1.998,1.619-3.617,3.617-3.617S446.031,473.638,446.031,475.636z"/>
		<path style="fill:none;stroke:#66BB6A;stroke-width:2;stroke-miterlimit:10;" d="M459.169,475.636c0,1.998-1.62,3.617-3.617,3.617
			s-3.617-1.62-3.617-3.617c0-1.998,1.62-3.617,3.617-3.617S459.169,473.638,459.169,475.636z"/>
		<path style="fill:none;stroke:#66BB6A;stroke-width:2;stroke-miterlimit:10;" d="M472.308,475.636c0,1.998-1.62,3.617-3.617,3.617
			c-1.998,0-3.617-1.62-3.617-3.617c0-1.998,1.62-3.617,3.617-3.617C470.688,472.019,472.308,473.638,472.308,475.636z"/>
		<path style="fill:none;stroke:#66BB6A;stroke-width:2;stroke-miterlimit:10;" d="M485.446,475.636c0,1.998-1.62,3.617-3.617,3.617
			c-1.998,0-3.617-1.62-3.617-3.617c0-1.998,1.62-3.617,3.617-3.617C483.826,472.019,485.446,473.638,485.446,475.636z"/>
		<path style="fill:none;stroke:#66BB6A;stroke-width:2;stroke-miterlimit:10;" d="M498.584,475.636c0,1.998-1.62,3.617-3.617,3.617
			s-3.617-1.62-3.617-3.617c0-1.998,1.62-3.617,3.617-3.617S498.584,473.638,498.584,475.636z"/>
		<path style="fill:none;stroke:#66BB6A;stroke-width:2;stroke-miterlimit:10;" d="M511.723,475.636c0,1.998-1.62,3.617-3.617,3.617
			s-3.617-1.62-3.617-3.617c0-1.998,1.62-3.617,3.617-3.617S511.723,473.638,511.723,475.636z"/>
	</g>
	<g>
		<path style="fill:none;stroke:#66BB6A;stroke-width:2;stroke-miterlimit:10;" d="M639.527,25.75c0,2.742-2.223,4.965-4.965,4.965
			s-4.965-2.223-4.965-4.965c0-2.742,2.223-4.965,4.965-4.965S639.527,23.008,639.527,25.75z"/>
		<path style="fill:none;stroke:#212121;stroke-width:2;stroke-linecap:round;stroke-linejoin:round;stroke-miterlimit:10;" d="
			M657.56,25.75c0,2.742-2.223,4.965-4.965,4.965s-4.965-2.223-4.965-4.965c0-2.742,2.223-4.965,4.965-4.965
			S657.56,23.008,657.56,25.75z"/>
		<path style="fill:none;stroke:#212121;stroke-width:2;stroke-linecap:round;stroke-linejoin:round;stroke-miterlimit:10;" d="
			M675.594,25.75c0,2.742-2.223,4.965-4.965,4.965c-2.742,0-4.965-2.223-4.965-4.965c0-2.742,2.223-4.965,4.965-4.965
			C673.371,20.785,675.594,23.008,675.594,25.75z"/>
		<path style="fill:none;stroke:#212121;stroke-width:2;stroke-linecap:round;stroke-linejoin:round;stroke-miterlimit:10;" d="
			M693.627,25.75c0,2.742-2.223,4.965-4.965,4.965c-2.742,0-4.965-2.223-4.965-4.965c0-2.742,2.223-4.965,4.965-4.965
			C691.404,20.785,693.627,23.008,693.627,25.75z"/>
		<path style="fill:none;stroke:#212121;stroke-width:2;stroke-linecap:round;stroke-linejoin:round;stroke-miterlimit:10;" d="
			M711.661,25.75c0,2.742-2.223,4.965-4.965,4.965s-4.965-2.223-4.965-4.965c0-2.742,2.223-4.965,4.965-4.965
			S711.661,23.008,711.661,25.75z"/>
		<path style="fill:none;stroke:#212121;stroke-width:2;stroke-linecap:round;stroke-linejoin:round;stroke-miterlimit:10;" d="
			M729.694,25.75c0,2.742-2.223,4.965-4.965,4.965c-2.742,0-4.965-2.223-4.965-4.965c0-2.742,2.223-4.965,4.965-4.965
			C727.471,20.785,729.694,23.008,729.694,25.75z"/>
		<path style="fill:none;stroke:#66BB6A;stroke-width:2;stroke-miterlimit:10;" d="M639.527,43.682c0,2.742-2.223,4.965-4.965,4.965
			s-4.965-2.223-4.965-4.965c0-2.742,2.223-4.965,4.965-4.965S639.527,40.94,639.527,43.682z"/>
		<path style="fill:none;stroke:#66BB6A;stroke-width:2;stroke-miterlimit:10;" d="M657.56,43.682c0,2.742-2.223,4.965-4.965,4.965
			s-4.965-2.223-4.965-4.965c0-2.742,2.223-4.965,4.965-4.965S657.56,40.94,657.56,43.682z"/>
		<path style="fill:none;stroke:#212121;stroke-width:2;stroke-linecap:round;stroke-linejoin:round;stroke-miterlimit:10;" d="
			M675.594,43.682c0,2.742-2.223,4.965-4.965,4.965c-2.742,0-4.965-2.223-4.965-4.965c0-2.742,2.223-4.965,4.965-4.965
			C673.371,38.717,675.594,40.94,675.594,43.682z"/>
		<path style="fill:none;stroke:#212121;stroke-width:2;stroke-linecap:round;stroke-linejoin:round;stroke-miterlimit:10;" d="
			M693.627,43.682c0,2.742-2.223,4.965-4.965,4.965c-2.742,0-4.965-2.223-4.965-4.965c0-2.742,2.223-4.965,4.965-4.965
			C691.404,38.717,693.627,40.94,693.627,43.682z"/>
		<path style="fill:none;stroke:#212121;stroke-width:2;stroke-linecap:round;stroke-linejoin:round;stroke-miterlimit:10;" d="
			M711.661,43.682c0,2.742-2.223,4.965-4.965,4.965s-4.965-2.223-4.965-4.965c0-2.742,2.223-4.965,4.965-4.965
			S711.661,40.94,711.661,43.682z"/>
		<path style="fill:none;stroke:#212121;stroke-width:2;stroke-linecap:round;stroke-linejoin:round;stroke-miterlimit:10;" d="
			M729.694,43.682c0,2.742-2.223,4.965-4.965,4.965c-2.742,0-4.965-2.223-4.965-4.965c0-2.742,2.223-4.965,4.965-4.965
			C727.471,38.717,729.694,40.94,729.694,43.682z"/>
		<path style="fill:none;stroke:#66BB6A;stroke-width:2;stroke-miterlimit:10;" d="M639.527,61.614c0,2.742-2.223,4.965-4.965,4.965
			s-4.965-2.223-4.965-4.965c0-2.742,2.223-4.965,4.965-4.965S639.527,58.872,639.527,61.614z"/>
		<path style="fill:none;stroke:#66BB6A;stroke-width:2;stroke-miterlimit:10;" d="M657.56,61.614c0,2.742-2.223,4.965-4.965,4.965
			s-4.965-2.223-4.965-4.965c0-2.742,2.223-4.965,4.965-4.965S657.56,58.872,657.56,61.614z"/>
		<path style="fill:none;stroke:#66BB6A;stroke-width:2;stroke-miterlimit:10;" d="M675.594,61.614c0,2.742-2.223,4.965-4.965,4.965
			c-2.742,0-4.965-2.223-4.965-4.965c0-2.742,2.223-4.965,4.965-4.965C673.371,56.649,675.594,58.872,675.594,61.614z"/>
		<path style="fill:none;stroke:#212121;stroke-width:2;stroke-linecap:round;stroke-linejoin:round;stroke-miterlimit:10;" d="
			M693.627,61.614c0,2.742-2.223,4.965-4.965,4.965c-2.742,0-4.965-2.223-4.965-4.965c0-2.742,2.223-4.965,4.965-4.965
			C691.404,56.649,693.627,58.872,693.627,61.614z"/>
		<path style="fill:none;stroke:#212121;stroke-width:2;stroke-linecap:round;stroke-linejoin:round;stroke-miterlimit:10;" d="
			M711.661,61.614c0,2.742-2.223,4.965-4.965,4.965s-4.965-2.223-4.965-4.965c0-2.742,2.223-4.965,4.965-4.965
			S711.661,58.872,711.661,61.614z"/>
		<path style="fill:none;stroke:#212121;stroke-width:2;stroke-linecap:round;stroke-linejoin:round;stroke-miterlimit:10;" d="
			M729.694,61.614c0,2.742-2.223,4.965-4.965,4.965c-2.742,0-4.965-2.223-4.965-4.965c0-2.742,2.223-4.965,4.965-4.965
			C727.471,56.649,729.694,58.872,729.694,61.614z"/>
	</g>
	<g>
		<path style="fill:none;stroke:#66BB6A;stroke-width:2;stroke-miterlimit:10;" d="M30.731,25.998c0,2.879-2.334,5.213-5.213,5.213
			c-2.879,0-5.213-2.334-5.213-5.213c0-2.879,2.334-5.213,5.213-5.213C28.397,20.785,30.731,23.119,30.731,25.998z"/>
		<path style="fill:none;stroke:#66BB6A;stroke-width:2;stroke-miterlimit:10;" d="M30.731,44.824c0,2.879-2.334,5.213-5.213,5.213
			c-2.879,0-5.213-2.334-5.213-5.213c0-2.879,2.334-5.213,5.213-5.213C28.397,39.611,30.731,41.945,30.731,44.824z"/>
		<path style="fill:none;stroke:#66BB6A;stroke-width:2;stroke-miterlimit:10;" d="M30.731,63.65c0,2.879-2.334,5.213-5.213,5.213
			c-2.879,0-5.213-2.334-5.213-5.213s2.334-5.213,5.213-5.213C28.397,58.437,30.731,60.771,30.731,63.65z"/>
		<path style="fill:none;stroke:#66BB6A;stroke-width:2;stroke-miterlimit:10;" d="M30.731,82.476c0,2.879-2.334,5.213-5.213,5.213
			c-2.879,0-5.213-2.334-5.213-5.213c0-2.879,2.334-5.213,5.213-5.213C28.397,77.263,30.731,79.597,30.731,82.476z"/>
		<circle style="fill:none;stroke:#66BB6A;stroke-width:2;stroke-miterlimit:10;" cx="25.519" cy="101.302" r="5.213"/>
		<path style="fill:none;stroke:#66BB6A;stroke-width:2;stroke-miterlimit:10;" d="M30.731,120.129c0,2.879-2.334,5.213-5.213,5.213
			c-2.879,0-5.213-2.334-5.213-5.213s2.334-5.213,5.213-5.213C28.397,114.916,30.731,117.25,30.731,120.129z"/>
	</g>
	<g>
		<path style="fill:#212121;" d="M564.981,152.272c-16.489,0-29.904-13.415-29.904-29.905c0-16.489,13.415-29.904,29.904-29.904v13
			c-9.321,0-16.904,7.583-16.904,16.904s7.583,16.905,16.904,16.905V152.272z"/>
	</g>
	<g>
		<path style="fill:none;stroke:#212121;stroke-width:2;stroke-miterlimit:10;" d="M152.974,186.512
			c0,5.661-4.589,10.25-10.25,10.25s-10.25-4.589-10.25-10.25"/>
		<path style="fill:none;stroke:#212121;stroke-width:2;stroke-miterlimit:10;" d="M173.474,186.512
			c0,5.661-4.589,10.25-10.25,10.25c-5.661,0-10.25-4.589-10.25-10.25"/>
		<path style="fill:none;stroke:#212121;stroke-width:2;stroke-miterlimit:10;" d="M193.974,186.512
			c0,5.661-4.589,10.25-10.25,10.25c-5.661,0-10.25-4.589-10.25-10.25"/>
		<path style="fill:none;stroke:#212121;stroke-width:2;stroke-miterlimit:10;" d="M214.474,186.512
			c0,5.661-4.589,10.25-10.25,10.25c-5.661,0-10.25-4.589-10.25-10.25"/>
	</g>
	<path style="fill:none;stroke:#212121;stroke-width:2;stroke-miterlimit:10;" d="M724.694,402.146c-2.762,0-5,2.238-5,5
		c0,4.727-3.845,8.571-8.571,8.571c-4.726,0-8.57-3.845-8.57-8.571c0-2.762-2.238-5-5-5c-2.762,0-5,2.238-5,5
		c0,4.727-3.845,8.571-8.571,8.571c-4.727,0-8.571-3.845-8.571-8.571c0-2.762-2.238-5-5-5c-2.762,0-5,2.238-5,5
		c0,4.727-3.845,8.571-8.57,8.571c-4.727,0-8.571-3.845-8.571-8.571c0-2.762-2.238-5-5-5c-2.762,0-5,2.238-5,5
		c0,4.727-3.845,8.571-8.571,8.571c-4.726,0-8.57-3.845-8.57-8.571c0-2.762-2.238-5-5-5c-2.762,0-5,2.238-5,5
		c0,10.24,8.331,18.571,18.57,18.571c5.358,0,10.179-2.294,13.571-5.936c3.393,3.641,8.213,5.936,13.571,5.936
		c5.357,0,10.178-2.294,13.57-5.936c3.393,3.641,8.213,5.936,13.571,5.936s10.179-2.294,13.571-5.936
		c3.393,3.641,8.213,5.936,13.57,5.936c10.24,0,18.571-8.331,18.571-18.571C729.694,404.385,727.456,402.146,724.694,402.146z"/>
	<path style="fill:none;stroke:#66BB6A;stroke-width:2;stroke-miterlimit:10;" d="M723.295,215.058L723.295,215.058
		c3.534,0,6.399-2.865,6.399-6.399V104.727c0-3.534-2.865-6.399-6.399-6.399l0,0c-3.534,0-6.399,2.865-6.399,6.399V208.66
		C716.896,212.193,719.761,215.058,723.295,215.058z"/>
	<g>
		<path style="fill:none;stroke:#66BB6A;stroke-width:2;stroke-miterlimit:10;" d="M387.608,479.253L387.608,479.253
			c-2.233,0-4.043-1.81-4.043-4.043v-84.604c0-1.714-1.156-3.289-2.838-3.615c-2.263-0.439-4.251,1.291-4.251,3.476v38.937
			c0,6.204-4.693,11.613-10.885,11.997c-6.786,0.421-12.411-4.948-12.411-11.607V363.53c0-2.233,1.81-4.043,4.043-4.043l0,0
			c2.233,0,4.043,1.81,4.043,4.043v66.085c0,1.93,1.465,3.642,3.393,3.72c2.059,0.084,3.731-1.537,3.731-3.541v-38.986
			c0-6.053,4.483-11.351,10.509-11.919c6.915-0.651,12.752,4.794,12.752,11.577v84.743
			C391.651,477.443,389.841,479.253,387.608,479.253z"/>
	</g>
	<g>
		<path style="fill:none;stroke:#212121;stroke-width:2;stroke-linecap:round;stroke-linejoin:round;stroke-miterlimit:10;" d="
			M476.157,20.785L476.157,20.785c2.233,0,4.043,1.81,4.043,4.043v83.604c0,1.714,1.156,3.289,2.838,3.615
			c2.263,0.439,4.251-1.291,4.251-3.476V69.634c0-6.204,4.693-11.613,10.885-11.997c6.786-0.421,12.411,4.948,12.411,11.607v20.264
			c0,2.233-1.81,4.043-4.043,4.043l0,0c-2.233,0-4.043-1.81-4.043-4.043V69.423c0-1.929-1.464-3.642-3.392-3.72
			c-2.059-0.084-3.731,1.537-3.731,3.541v38.986c0,6.053-4.483,11.351-10.51,11.919c-6.915,0.651-12.752-4.794-12.752-11.577V24.828
			C472.114,22.595,473.924,20.785,476.157,20.785z"/>
	</g>
	<polygon style="fill:none;stroke:#212121;stroke-width:2;stroke-miterlimit:10;" points="206.59,329.452 223.974,299.341 
		241.358,329.452 	"/>
	<polygon style="fill:#66BB6A;" points="206.59,287.106 223.974,256.996 241.358,287.106 	"/>
	<g>
		
			<line style="fill:none;stroke:#66BB6A;stroke-width:2;stroke-miterlimit:10;" x1="549.029" y1="477.482" x2="665.663" y2="477.482"/>
		
			<line style="fill:none;stroke:#66BB6A;stroke-width:2;stroke-miterlimit:10;" x1="549.029" y1="467.558" x2="665.663" y2="467.558"/>
		
			<line style="fill:none;stroke:#66BB6A;stroke-width:2;stroke-miterlimit:10;" x1="549.029" y1="457.634" x2="665.663" y2="457.634"/>
	</g>
	<g>
		
			<line style="fill:none;stroke:#66BB6A;stroke-width:2;stroke-miterlimit:10;" x1="290.861" y1="352.522" x2="330.008" y2="313.376"/>
		
			<line style="fill:none;stroke:#66BB6A;stroke-width:2;stroke-miterlimit:10;" x1="283.844" y1="345.505" x2="322.99" y2="306.359"/>
		
			<line style="fill:none;stroke:#66BB6A;stroke-width:2;stroke-miterlimit:10;" x1="276.827" y1="338.487" x2="315.973" y2="299.341"/>
	</g>
	<g>
		
			<line style="fill:none;stroke:#66BB6A;stroke-width:2;stroke-miterlimit:10;" x1="20.306" y1="256.996" x2="20.306" y2="351.541"/>
		<line style="fill:none;stroke:#66BB6A;stroke-width:2;stroke-miterlimit:10;" x1="30.23" y1="256.996" x2="30.23" y2="351.541"/>
		
			<line style="fill:none;stroke:#66BB6A;stroke-width:2;stroke-miterlimit:10;" x1="40.154" y1="256.996" x2="40.154" y2="351.541"/>
	</g>
	<polygon style="fill:#66BB6A;" points="729.694,441.96 729.694,479.253 692.401,479.253 	"/>
	<g>
		
			<rect x="591.304" y="20.785" transform="matrix(-1 -1.224647e-16 1.224647e-16 -1 1194.8248 53.7881)" style="fill:#66BB6A;" width="12.218" height="12.218"/>
		
			<rect x="591.304" y="37.993" transform="matrix(-1 -1.224647e-16 1.224647e-16 -1 1194.8248 88.2041)" style="fill:#66BB6A;" width="12.218" height="12.218"/>
		
			<rect x="591.304" y="55.201" transform="matrix(-1 -1.224647e-16 1.224647e-16 -1 1194.8248 122.62)" style="fill:#66BB6A;" width="12.218" height="12.218"/>
		
			<rect x="591.304" y="72.409" transform="matrix(-1 -1.224647e-16 1.224647e-16 -1 1194.8248 157.036)" style="fill:#66BB6A;" width="12.218" height="12.218"/>
		
			<rect x="591.304" y="89.617" transform="matrix(-1 -1.224647e-16 1.224647e-16 -1 1194.8248 191.4519)" style="fill:#66BB6A;" width="12.218" height="12.218"/>
	</g>
	<g>
		
			<rect x="89.138" y="467.036" transform="matrix(6.123234e-17 -1 1 6.123234e-17 -377.8979 568.3912)" style="fill:#212121;" width="12.218" height="12.218"/>
		
			<rect x="71.93" y="467.036" transform="matrix(6.123234e-17 -1 1 6.123234e-17 -395.106 551.1832)" style="fill:#212121;" width="12.218" height="12.218"/>
		
			<rect x="54.722" y="467.036" transform="matrix(6.123234e-17 -1 1 6.123234e-17 -412.314 533.9752)" style="fill:#212121;" width="12.218" height="12.218"/>
		
			<rect x="37.514" y="467.036" transform="matrix(6.123234e-17 -1 1 6.123234e-17 -429.5219 516.7672)" style="fill:#212121;" width="12.218" height="12.218"/>
		
			<rect x="20.306" y="467.036" transform="matrix(6.123234e-17 -1 1 6.123234e-17 -446.7299 499.5592)" style="fill:#212121;" width="12.218" height="12.218"/>
	</g>
	<g>
		<rect x="243.729" y="45.662" style="fill:#66BB6A;" width="46.069" height="46.069"/>
		<g>
			<path style="fill:none;stroke:#212121;stroke-width:2;stroke-miterlimit:10;" d="M261.732,20.785h-42.88v42.88l42.88,0
				L261.732,20.785z M229.034,30.968h22.515v22.515h-22.515L229.034,30.968z"/>
		</g>
	</g>
	<g>
		
			<rect x="573.072" y="331.499" transform="matrix(-1 -1.224647e-16 1.224647e-16 -1 1170.484 687.3392)" style="fill:#66BB6A;" width="24.341" height="24.341"/>
		
			<rect x="573.072" y="365.782" transform="matrix(-1 -1.224647e-16 1.224647e-16 -1 1170.484 755.9048)" style="fill:#66BB6A;" width="24.341" height="24.341"/>
		
			<rect x="537.859" y="331.499" transform="matrix(-1 -1.224647e-16 1.224647e-16 -1 1100.0586 687.3392)" style="fill:#66BB6A;" width="24.341" height="24.341"/>
		
			<rect x="537.859" y="365.782" transform="matrix(-1 -1.224647e-16 1.224647e-16 -1 1100.0586 755.9048)" style="fill:#66BB6A;" width="24.341" height="24.341"/>
		<g>
			
				<rect x="567.868" y="326.296" transform="matrix(-1 -1.224647e-16 1.224647e-16 -1 1160.077 676.9322)" style="fill:none;stroke:#212121;stroke-width:2;stroke-miterlimit:10;" width="24.341" height="24.341"/>
			
				<rect x="567.868" y="360.578" transform="matrix(-1 -1.224647e-16 1.224647e-16 -1 1160.077 745.4978)" style="fill:none;stroke:#212121;stroke-width:2;stroke-miterlimit:10;" width="24.341" height="24.341"/>
			
				<rect x="532.655" y="326.296" transform="matrix(-1 -1.224647e-16 1.224647e-16 -1 1089.6516 676.9322)" style="fill:none;stroke:#212121;stroke-width:2;stroke-miterlimit:10;" width="24.341" height="24.341"/>
			
				<rect x="532.655" y="360.578" transform="matrix(-1 -1.224647e-16 1.224647e-16 -1 1089.6516 745.4978)" style="fill:none;stroke:#212121;stroke-width:2;stroke-miterlimit:10;" width="24.341" height="24.341"/>
		</g>
	</g>
	<g>
		<defs>
			<circle id="SVGID_00000170270571516753776680000016324482228196380588_" cx="54.072" cy="175.638" r="33.766"/>
		</defs>
		<clipPath id="SVGID_00000173880677892033997280000003929403619434040215_">
			<use xlink:href="#SVGID_00000170270571516753776680000016324482228196380588_"  style="overflow:visible;"/>
		</clipPath>
		<g style="clip-path:url(#SVGID_00000173880677892033997280000003929403619434040215_);">
			
				<rect x="-36.632" y="166.066" transform="matrix(6.123234e-17 -1 1 6.123234e-17 -145.7607 195.6038)" style="fill:#212121;" width="123.106" height="9.232"/>
			
				<rect x="-22.056" y="166.066" transform="matrix(6.123234e-17 -1 1 6.123234e-17 -131.1855 210.179)" style="fill:#212121;" width="123.106" height="9.232"/>
			
				<rect x="-7.481" y="166.066" transform="matrix(6.123234e-17 -1 1 6.123234e-17 -116.6103 224.7543)" style="fill:#66BB6A;" width="123.106" height="9.232"/>
			
				<rect x="7.094" y="166.066" transform="matrix(6.123234e-17 -1 1 6.123234e-17 -102.035 239.3295)" style="fill:#212121;" width="123.106" height="9.232"/>
			
				<rect x="21.669" y="166.066" transform="matrix(6.123234e-17 -1 1 6.123234e-17 -87.4598 253.9046)" style="fill:#212121;" width="123.106" height="9.232"/>
		</g>
	</g>
	<g>
		<g>
			<g>
				
					<line style="fill:none;stroke:#65BA69;stroke-width:3;stroke-linecap:round;stroke-linejoin:round;" x1="20.306" y1="419.762" x2="20.306" y2="419.762"/>
				
					<line style="fill:none;stroke:#65BA69;stroke-width:3;stroke-linecap:round;stroke-linejoin:round;stroke-dasharray:0,9.0121;" x1="29.318" y1="419.762" x2="78.885" y2="419.762"/>
				
					<line style="fill:none;stroke:#65BA69;stroke-width:3;stroke-linecap:round;stroke-linejoin:round;" x1="83.391" y1="419.762" x2="83.391" y2="419.762"/>
			</g>
		</g>
		<g>
			<g>
				
					<line style="fill:none;stroke:#65BA69;stroke-width:3;stroke-linecap:round;stroke-linejoin:round;" x1="20.306" y1="428.667" x2="20.306" y2="428.667"/>
				
					<line style="fill:none;stroke:#65BA69;stroke-width:3;stroke-linecap:round;stroke-linejoin:round;stroke-dasharray:0,9.0121;" x1="29.318" y1="428.667" x2="78.885" y2="428.667"/>
				
					<line style="fill:none;stroke:#65BA69;stroke-width:3;stroke-linecap:round;stroke-linejoin:round;" x1="83.391" y1="428.667" x2="83.391" y2="428.667"/>
			</g>
		</g>
		<g>
			<g>
				
					<line style="fill:none;stroke:#65BA69;stroke-width:3;stroke-linecap:round;stroke-linejoin:round;" x1="20.306" y1="437.572" x2="20.306" y2="437.572"/>
				
					<line style="fill:none;stroke:#65BA69;stroke-width:3;stroke-linecap:round;stroke-linejoin:round;stroke-dasharray:0,9.0121;" x1="29.318" y1="437.572" x2="78.885" y2="437.572"/>
				
					<line style="fill:none;stroke:#65BA69;stroke-width:3;stroke-linecap:round;stroke-linejoin:round;" x1="83.391" y1="437.572" x2="83.391" y2="437.572"/>
			</g>
		</g>
	</g>
	<g>
		<g>
			<g>
				
					<line style="fill:none;stroke:#212121;stroke-width:3;stroke-linecap:round;stroke-linejoin:round;" x1="628.681" y1="116.367" x2="628.681" y2="116.367"/>
				
					<line style="fill:none;stroke:#212121;stroke-width:3;stroke-linecap:round;stroke-linejoin:round;stroke-dasharray:0,9.0121;" x1="637.693" y1="116.367" x2="687.26" y2="116.367"/>
				
					<line style="fill:none;stroke:#212121;stroke-width:3;stroke-linecap:round;stroke-linejoin:round;" x1="691.766" y1="116.367" x2="691.766" y2="116.367"/>
			</g>
		</g>
		<g>
			<g>
				
					<line style="fill:none;stroke:#212121;stroke-width:3;stroke-linecap:round;stroke-linejoin:round;" x1="628.681" y1="125.272" x2="628.681" y2="125.272"/>
				
					<line style="fill:none;stroke:#212121;stroke-width:3;stroke-linecap:round;stroke-linejoin:round;stroke-dasharray:0,9.0121;" x1="637.693" y1="125.272" x2="687.26" y2="125.272"/>
				
					<line style="fill:none;stroke:#212121;stroke-width:3;stroke-linecap:round;stroke-linejoin:round;" x1="691.766" y1="125.272" x2="691.766" y2="125.272"/>
			</g>
		</g>
		<g>
			<g>
				
					<line style="fill:none;stroke:#212121;stroke-width:3;stroke-linecap:round;stroke-linejoin:round;" x1="628.681" y1="134.177" x2="628.681" y2="134.177"/>
				
					<line style="fill:none;stroke:#212121;stroke-width:3;stroke-linecap:round;stroke-linejoin:round;stroke-dasharray:0,9.0121;" x1="637.693" y1="134.177" x2="687.26" y2="134.177"/>
				
					<line style="fill:none;stroke:#212121;stroke-width:3;stroke-linecap:round;stroke-linejoin:round;" x1="691.766" y1="134.177" x2="691.766" y2="134.177"/>
			</g>
		</g>
	</g>
</g>
</svg>
