<?xml version="1.0" encoding="utf-8"?>
<!-- Generator: Adobe Illustrator 27.5.0, SVG Export Plug-In . SVG Version: 6.00 Build 0)  -->
<svg version="1.1" id="BACKGROUND" xmlns="http://www.w3.org/2000/svg" xmlns:xlink="http://www.w3.org/1999/xlink" x="0px" y="0px"
	 viewBox="0 0 750 500" style="enable-background:new 0 0 750 500;" xml:space="preserve">
<g>
	<rect style="fill:#FFFFFF;" width="750" height="500"/>
	<g>
		<defs>
			<rect id="SVGID_1_" width="750" height="500"/>
		</defs>
		<clipPath id="SVGID_00000129177923245830271920000004132127702306202268_">
			<use xlink:href="#SVGID_1_"  style="overflow:visible;"/>
		</clipPath>
		<g style="clip-path:url(#SVGID_00000129177923245830271920000004132127702306202268_);">
			<g>
				<g>
					<g>
						
							<line style="fill:none;stroke:#212121;stroke-width:3;stroke-linecap:round;stroke-linejoin:round;" x1="592.951" y1="170.655" x2="592.951" y2="170.655"/>
						
							<line style="fill:none;stroke:#212121;stroke-width:3;stroke-linecap:round;stroke-linejoin:round;stroke-dasharray:0,8.9979;" x1="592.951" y1="161.658" x2="592.951" y2="67.18"/>
						
							<line style="fill:none;stroke:#212121;stroke-width:3;stroke-linecap:round;stroke-linejoin:round;" x1="592.951" y1="62.681" x2="592.951" y2="62.681"/>
					</g>
				</g>
				<g>
					<g>
						
							<line style="fill:none;stroke:#212121;stroke-width:3;stroke-linecap:round;stroke-linejoin:round;" x1="602.452" y1="170.655" x2="602.452" y2="170.655"/>
						
							<line style="fill:none;stroke:#212121;stroke-width:3;stroke-linecap:round;stroke-linejoin:round;stroke-dasharray:0,8.9979;" x1="602.452" y1="161.658" x2="602.452" y2="67.18"/>
						
							<line style="fill:none;stroke:#212121;stroke-width:3;stroke-linecap:round;stroke-linejoin:round;" x1="602.452" y1="62.681" x2="602.452" y2="62.681"/>
					</g>
				</g>
				<g>
					<g>
						
							<line style="fill:none;stroke:#212121;stroke-width:3;stroke-linecap:round;stroke-linejoin:round;" x1="611.953" y1="170.655" x2="611.953" y2="170.655"/>
						
							<line style="fill:none;stroke:#212121;stroke-width:3;stroke-linecap:round;stroke-linejoin:round;stroke-dasharray:0,8.9979;" x1="611.953" y1="161.658" x2="611.953" y2="67.18"/>
						
							<line style="fill:none;stroke:#212121;stroke-width:3;stroke-linecap:round;stroke-linejoin:round;" x1="611.953" y1="62.681" x2="611.953" y2="62.681"/>
					</g>
				</g>
				<g>
					<g>
						
							<line style="fill:none;stroke:#212121;stroke-width:3;stroke-linecap:round;stroke-linejoin:round;" x1="621.455" y1="170.655" x2="621.455" y2="170.655"/>
						
							<line style="fill:none;stroke:#212121;stroke-width:3;stroke-linecap:round;stroke-linejoin:round;stroke-dasharray:0,8.9979;" x1="621.455" y1="161.658" x2="621.455" y2="67.18"/>
						
							<line style="fill:none;stroke:#212121;stroke-width:3;stroke-linecap:round;stroke-linejoin:round;" x1="621.455" y1="62.681" x2="621.455" y2="62.681"/>
					</g>
				</g>
				<g>
					<g>
						
							<line style="fill:none;stroke:#212121;stroke-width:3;stroke-linecap:round;stroke-linejoin:round;" x1="630.956" y1="170.655" x2="630.956" y2="170.655"/>
						
							<line style="fill:none;stroke:#212121;stroke-width:3;stroke-linecap:round;stroke-linejoin:round;stroke-dasharray:0,8.9979;" x1="630.956" y1="161.658" x2="630.956" y2="67.18"/>
						
							<line style="fill:none;stroke:#212121;stroke-width:3;stroke-linecap:round;stroke-linejoin:round;" x1="630.956" y1="62.681" x2="630.956" y2="62.681"/>
					</g>
				</g>
			</g>
			
				<rect x="122.397" y="379.765" transform="matrix(0.7071 0.7071 -0.7071 0.7071 383.4132 -8.0526)" style="fill:#00E676;" width="158.059" height="158.059"/>
			<polygon style="fill:#212121;" points="27.472,478.989 27.472,424.469 81.992,424.469 			"/>
			<g>
				<g>
					<polygon style="fill:#212121;" points="224.341,224.564 212.706,236.198 201.072,224.564 					"/>
				</g>
				<g>
					<polygon style="fill:#212121;" points="242.072,206.832 230.438,218.467 218.803,206.832 					"/>
				</g>
				<g>
					<polygon style="fill:#212121;" points="259.804,189.101 248.169,200.735 236.535,189.101 					"/>
				</g>
				<g>
					<polygon style="fill:#212121;" points="277.535,171.369 265.901,183.004 254.266,171.369 					"/>
				</g>
			</g>
			
				<rect x="371.376" y="-18.44" transform="matrix(0.7071 0.7071 -0.7071 0.7071 157.4751 -293.5768)" style="fill:#00E676;" width="123.481" height="123.481"/>
			
				<rect x="371.376" y="-18.44" transform="matrix(0.7071 0.7071 -0.7071 0.7071 157.4751 -293.5768)" style="fill:#00E676;" width="123.481" height="123.481"/>
			<polyline style="fill:none;stroke:#212121;stroke-width:8;stroke-miterlimit:10;" points="319.595,510.167 521.061,308.7 
				722.528,510.167 			"/>
			<g>
				
					<rect x="597.382" y="362.936" transform="matrix(-0.7071 0.7071 -0.7071 -0.7071 1357.4844 230.732)" style="fill:#00E676;" width="67.147" height="67.147"/>
				<g>
					
						<rect x="575.217" y="263.111" transform="matrix(-0.7071 0.7071 -0.7071 -0.7071 1302.5704 98.1578)" style="fill:none;stroke:#212121;stroke-width:2;stroke-miterlimit:10;" width="111.478" height="111.478"/>
					
						<rect x="584.695" y="272.589" transform="matrix(0.7071 -0.7071 0.7071 0.7071 -40.6583 539.5424)" style="fill:none;stroke:#212121;stroke-width:2;stroke-miterlimit:10;" width="92.523" height="92.523"/>
					
						<rect x="594.173" y="282.067" transform="matrix(0.7071 -0.7071 0.7071 0.7071 -40.6583 539.5424)" style="fill:none;stroke:#212121;stroke-width:2;stroke-miterlimit:10;" width="73.567" height="73.567"/>
					
						<rect x="603.651" y="291.545" transform="matrix(0.7071 -0.7071 0.7071 0.7071 -40.6586 539.5415)" style="fill:none;stroke:#212121;stroke-width:2;stroke-miterlimit:10;" width="54.611" height="54.611"/>
					
						<rect x="613.129" y="301.023" transform="matrix(0.7071 -0.7071 0.7071 0.7071 -40.6583 539.5424)" style="fill:none;stroke:#212121;stroke-width:2;stroke-miterlimit:10;" width="35.655" height="35.655"/>
					
						<rect x="622.607" y="310.501" transform="matrix(-0.7071 0.7071 -0.7071 -0.7071 1302.5704 98.1579)" style="fill:none;stroke:#212121;stroke-width:2;stroke-miterlimit:10;" width="16.699" height="16.699"/>
				</g>
			</g>
			<g>
				
					<rect x="290.724" y="188.271" transform="matrix(0.7071 0.7071 -0.7071 0.7071 301.0152 -184.7003)" style="fill:#00E676;" width="165.473" height="165.473"/>
				
					<rect x="290.724" y="167.263" transform="matrix(0.7071 0.7071 -0.7071 0.7071 286.1607 -190.8531)" style="fill:#212121;" width="165.473" height="165.473"/>
				<g>
					
						<rect x="317.721" y="194.261" transform="matrix(-0.7071 0.7071 -0.7071 -0.7071 814.3135 162.7003)" style="fill:none;stroke:#FFFFFF;stroke-width:2;stroke-miterlimit:10;" width="111.479" height="111.479"/>
					
						<rect x="327.199" y="203.739" transform="matrix(0.7071 -0.7071 0.7071 0.7071 -67.3927 337.2997)" style="fill:none;stroke:#FFFFFF;stroke-width:2;stroke-miterlimit:10;" width="92.523" height="92.523"/>
					
						<rect x="336.677" y="213.217" transform="matrix(0.7071 -0.7071 0.7071 0.7071 -67.3927 337.2997)" style="fill:none;stroke:#FFFFFF;stroke-width:2;stroke-miterlimit:10;" width="73.567" height="73.567"/>
					
						<rect x="346.155" y="222.695" transform="matrix(0.7071 -0.7071 0.7071 0.7071 -67.3927 337.2997)" style="fill:none;stroke:#FFFFFF;stroke-width:2;stroke-miterlimit:10;" width="54.611" height="54.611"/>
					
						<rect x="355.633" y="232.172" transform="matrix(0.7071 -0.7071 0.7071 0.7071 -67.3927 337.2997)" style="fill:none;stroke:#FFFFFF;stroke-width:2;stroke-miterlimit:10;" width="35.655" height="35.655"/>
					
						<rect x="365.111" y="241.65" transform="matrix(-0.7071 0.7071 -0.7071 -0.7071 814.3135 162.7003)" style="fill:none;stroke:#FFFFFF;stroke-width:2;stroke-miterlimit:10;" width="16.699" height="16.699"/>
				</g>
			</g>
			<g>
				<polygon style="fill:#FFFFFF;" points="409.46,163.39 373.46,127.39 337.46,163.39 				"/>
			</g>
			<g>
				
					<rect x="226.348" y="402.355" transform="matrix(-0.7071 0.7071 -0.7071 -0.7071 685.6561 532.9191)" style="fill:#212121;" width="12.218" height="12.218"/>
				
					<rect x="238.516" y="414.523" transform="matrix(-0.7071 0.7071 -0.7071 -0.7071 715.032 545.0869)" style="fill:#212121;" width="12.218" height="12.218"/>
				
					<rect x="250.684" y="426.691" transform="matrix(-0.7071 0.7071 -0.7071 -0.7071 744.408 557.2549)" style="fill:#212121;" width="12.218" height="12.218"/>
				
					<rect x="262.852" y="438.858" transform="matrix(-0.7071 0.7071 -0.7071 -0.7071 773.7838 569.423)" style="fill:#212121;" width="12.218" height="12.218"/>
				
					<rect x="275.02" y="451.026" transform="matrix(-0.7071 0.7071 -0.7071 -0.7071 803.1597 581.5908)" style="fill:#212121;" width="12.218" height="12.218"/>
				
					<rect x="299.355" y="475.362" transform="matrix(-0.7071 0.7071 -0.7071 -0.7071 861.9114 605.9266)" style="fill:#212121;" width="12.218" height="12.218"/>
			</g>
			<g>
				
					<rect x="390.504" y="42" transform="matrix(-0.7071 0.7071 -0.7071 -0.7071 711.0776 -198.321)" style="fill:#FFFFFF;" width="12.218" height="12.218"/>
				
					<rect x="402.671" y="54.168" transform="matrix(-0.7071 0.7071 -0.7071 -0.7071 740.4534 -186.1531)" style="fill:#FFFFFF;" width="12.218" height="12.218"/>
				
					<rect x="414.839" y="66.335" transform="matrix(-0.7071 0.7071 -0.7071 -0.7071 769.8293 -173.9852)" style="fill:#FFFFFF;" width="12.218" height="12.218"/>
				
					<rect x="427.007" y="78.503" transform="matrix(-0.7071 0.7071 -0.7071 -0.7071 799.2053 -161.8173)" style="fill:#FFFFFF;" width="12.218" height="12.218"/>
				
					<rect x="439.175" y="90.671" transform="matrix(-0.7071 0.7071 -0.7071 -0.7071 828.5826 -149.6473)" style="fill:#FFFFFF;" width="12.218" height="12.218"/>
			</g>
			<g>
				
					<path style="fill:none;stroke:#212121;stroke-width:3;stroke-linecap:round;stroke-linejoin:round;stroke-dasharray:0,9.1631;" d="
					M473.464,406.647c-0.623-8.815,1.759-17.537,7.514-24.286c5.755-6.749,14.51-11.114,24.286-11.114
					c18.557,0,33.6,15.043,33.6,33.6c0,18.06-14.439,32.747-32.327,33.073C488.649,438.246,474.702,424.173,473.464,406.647z"/>
				
					<path style="fill:none;stroke:#212121;stroke-width:3;stroke-linecap:round;stroke-linejoin:round;stroke-dasharray:0,9.2457;" d="
					M484.064,407.547c-0.942-5.967-0.327-12.363,3.509-17.691c3.836-5.328,10.345-8.909,17.691-8.909c13.2,0,23.9,10.7,23.9,23.9
					c0,12.454-9.794,22.621-21.991,23.109C494.976,428.445,485.893,419.136,484.064,407.547z"/>
				
					<path style="fill:none;stroke:#212121;stroke-width:3;stroke-linecap:round;stroke-linejoin:round;stroke-dasharray:0,9.4883;" d="
					M493.164,409.347c-1.209-2.499-0.913-8.089,1.005-11.995c1.918-3.907,6.18-6.705,11.095-6.705c7.842,0,14.2,6.358,14.2,14.2
					c0,6.848-5.149,12.494-11.655,13.146C501.304,418.644,494.932,413.003,493.164,409.347z"/>
				<g>
					
						<path style="fill:none;stroke:#212121;stroke-width:3;stroke-linecap:round;stroke-linejoin:round;stroke-dasharray:0,9.4109;" d="
						M509.239,406.957c-1.165,2.195-3.89,3.03-6.085,1.864c-2.195-1.165-3.03-3.89-1.864-6.085s3.89-3.03,6.085-1.864
						C509.57,402.038,510.404,404.762,509.239,406.957z"/>
				</g>
			</g>
			<g>
				<polygon style="fill:#212121;" points="27.472,67.995 50.057,28.876 72.642,67.995 				"/>
				<polygon style="fill:#212121;" points="27.472,87.554 50.057,48.436 72.642,87.554 				"/>
				<polygon style="fill:#00E676;" points="38.764,67.995 61.349,67.995 50.057,48.436 				"/>
			</g>
			<g>
				<polygon style="fill:#212121;" points="584.062,460.794 568.765,487.29 553.468,460.794 				"/>
				<polygon style="fill:#212121;" points="584.062,447.547 568.765,474.042 553.468,447.547 				"/>
				<polygon style="fill:#00E676;" points="576.413,460.794 561.116,460.794 568.765,474.042 				"/>
			</g>
			<g>
				<polygon style="fill:none;stroke:#212121;stroke-width:3;" points="493.436,140.183 520.43,93.428 547.424,140.183 				"/>
				<polygon style="fill:#00E676;" points="493.436,163.56 520.43,116.805 547.424,163.56 				"/>
			</g>
			<g>
				<g>
					<g>
						
							<line style="fill:none;stroke:#212121;stroke-width:3;stroke-linecap:round;stroke-linejoin:round;" x1="132.316" y1="287.351" x2="132.316" y2="287.351"/>
						
							<line style="fill:none;stroke:#212121;stroke-width:3;stroke-linecap:round;stroke-linejoin:round;stroke-dasharray:0,8.9979;" x1="141.314" y1="287.351" x2="235.792" y2="287.351"/>
						
							<line style="fill:none;stroke:#212121;stroke-width:3;stroke-linecap:round;stroke-linejoin:round;" x1="240.291" y1="287.351" x2="240.291" y2="287.351"/>
					</g>
				</g>
				<g>
					<g>
						
							<line style="fill:none;stroke:#212121;stroke-width:3;stroke-linecap:round;stroke-linejoin:round;" x1="132.316" y1="296.852" x2="132.316" y2="296.852"/>
						
							<line style="fill:none;stroke:#212121;stroke-width:3;stroke-linecap:round;stroke-linejoin:round;stroke-dasharray:0,8.9979;" x1="141.314" y1="296.852" x2="235.792" y2="296.852"/>
						
							<line style="fill:none;stroke:#212121;stroke-width:3;stroke-linecap:round;stroke-linejoin:round;" x1="240.291" y1="296.852" x2="240.291" y2="296.852"/>
					</g>
				</g>
				<g>
					<g>
						
							<line style="fill:none;stroke:#212121;stroke-width:3;stroke-linecap:round;stroke-linejoin:round;" x1="132.316" y1="306.354" x2="132.316" y2="306.354"/>
						
							<line style="fill:none;stroke:#212121;stroke-width:3;stroke-linecap:round;stroke-linejoin:round;stroke-dasharray:0,8.9979;" x1="141.314" y1="306.354" x2="235.792" y2="306.354"/>
						
							<line style="fill:none;stroke:#212121;stroke-width:3;stroke-linecap:round;stroke-linejoin:round;" x1="240.291" y1="306.354" x2="240.291" y2="306.354"/>
					</g>
				</g>
				<g>
					<g>
						
							<line style="fill:none;stroke:#212121;stroke-width:3;stroke-linecap:round;stroke-linejoin:round;" x1="132.316" y1="315.855" x2="132.316" y2="315.855"/>
						
							<line style="fill:none;stroke:#212121;stroke-width:3;stroke-linecap:round;stroke-linejoin:round;stroke-dasharray:0,8.9979;" x1="141.314" y1="315.855" x2="235.792" y2="315.855"/>
						
							<line style="fill:none;stroke:#212121;stroke-width:3;stroke-linecap:round;stroke-linejoin:round;" x1="240.291" y1="315.855" x2="240.291" y2="315.855"/>
					</g>
				</g>
				<g>
					<g>
						
							<line style="fill:none;stroke:#212121;stroke-width:3;stroke-linecap:round;stroke-linejoin:round;" x1="132.316" y1="325.356" x2="132.316" y2="325.356"/>
						
							<line style="fill:none;stroke:#212121;stroke-width:3;stroke-linecap:round;stroke-linejoin:round;stroke-dasharray:0,8.9979;" x1="141.314" y1="325.356" x2="235.792" y2="325.356"/>
						
							<line style="fill:none;stroke:#212121;stroke-width:3;stroke-linecap:round;stroke-linejoin:round;" x1="240.291" y1="325.356" x2="240.291" y2="325.356"/>
					</g>
				</g>
			</g>
			<g>
				
					<line style="fill:none;stroke:#212121;stroke-width:2;stroke-linecap:round;stroke-linejoin:round;stroke-miterlimit:10;" x1="52.642" y1="367.007" x2="62.642" y2="377.007"/>
				
					<line style="fill:none;stroke:#212121;stroke-width:2;stroke-linecap:round;stroke-linejoin:round;stroke-miterlimit:10;" x1="62.642" y1="367.007" x2="72.642" y2="377.007"/>
				
					<line style="fill:none;stroke:#212121;stroke-width:2;stroke-linecap:round;stroke-linejoin:round;stroke-miterlimit:10;" x1="72.642" y1="367.007" x2="82.642" y2="377.007"/>
				
					<line style="fill:none;stroke:#212121;stroke-width:2;stroke-linecap:round;stroke-linejoin:round;stroke-miterlimit:10;" x1="82.642" y1="367.007" x2="92.642" y2="377.007"/>
				
					<line style="fill:none;stroke:#212121;stroke-width:2;stroke-linecap:round;stroke-linejoin:round;stroke-miterlimit:10;" x1="92.642" y1="367.007" x2="102.642" y2="377.007"/>
				
					<line style="fill:none;stroke:#212121;stroke-width:2;stroke-linecap:round;stroke-linejoin:round;stroke-miterlimit:10;" x1="102.642" y1="367.007" x2="112.642" y2="377.007"/>
				
					<line style="fill:none;stroke:#212121;stroke-width:2;stroke-linecap:round;stroke-linejoin:round;stroke-miterlimit:10;" x1="112.642" y1="367.007" x2="122.642" y2="377.007"/>
				
					<line style="fill:none;stroke:#212121;stroke-width:2;stroke-linecap:round;stroke-linejoin:round;stroke-miterlimit:10;" x1="122.642" y1="367.007" x2="132.642" y2="377.007"/>
			</g>
			<g>
				
					<line style="fill:none;stroke:#212121;stroke-width:2;stroke-miterlimit:10;" x1="481.116" y1="18.901" x2="491.116" y2="28.901"/>
				
					<line style="fill:none;stroke:#212121;stroke-width:2;stroke-miterlimit:10;" x1="491.116" y1="18.901" x2="501.116" y2="28.901"/>
				
					<line style="fill:none;stroke:#212121;stroke-width:2;stroke-miterlimit:10;" x1="501.116" y1="18.901" x2="511.116" y2="28.901"/>
				
					<line style="fill:none;stroke:#212121;stroke-width:2;stroke-miterlimit:10;" x1="511.116" y1="18.901" x2="521.116" y2="28.901"/>
				
					<line style="fill:none;stroke:#212121;stroke-width:2;stroke-miterlimit:10;" x1="521.116" y1="18.901" x2="531.116" y2="28.901"/>
				
					<line style="fill:none;stroke:#212121;stroke-width:2;stroke-miterlimit:10;" x1="531.116" y1="18.901" x2="541.116" y2="28.901"/>
				
					<line style="fill:none;stroke:#212121;stroke-width:2;stroke-miterlimit:10;" x1="541.116" y1="18.901" x2="551.116" y2="28.901"/>
				
					<line style="fill:none;stroke:#212121;stroke-width:2;stroke-miterlimit:10;" x1="551.116" y1="18.901" x2="561.116" y2="28.901"/>
			</g>
			<path style="fill:none;stroke:#212121;stroke-width:2;" d="M51.563,123.893v48.169c0,6.652-5.393,12.045-12.045,12.045l0,0
				c-6.653,0-12.045-5.393-12.045-12.045v-48.169"/>
			<path style="fill:none;stroke:#212121;stroke-width:2;" d="M540.083,270.13v-48.169c0-6.652,5.393-12.045,12.045-12.045l0,0
				c6.652,0,12.045,5.393,12.045,12.045v48.169"/>
			<polyline style="fill:none;stroke:#00E676;stroke-width:2;stroke-miterlimit:10;" points="27.472,243.447 27.472,263.495 
				47.521,263.495 47.521,243.447 67.569,243.447 67.569,263.495 87.618,263.495 87.618,243.447 107.666,243.447 107.666,263.495 
				127.715,263.495 127.715,243.447 147.764,243.447 147.764,263.495 167.812,263.495 167.812,243.447 			"/>
			<polyline style="fill:none;stroke:#00E676;stroke-width:2;stroke-miterlimit:10;" points="620.083,211.273 630.209,221.398 
				640.335,211.273 630.209,201.146 640.335,191.02 650.461,201.146 660.587,191.02 650.461,180.894 660.587,170.768 
				670.713,180.894 680.839,170.768 670.713,160.642 680.839,150.516 690.965,160.642 701.091,150.516 690.965,140.39 			"/>
			<circle style="fill:none;stroke:#00E676;stroke-width:2;stroke-miterlimit:10;" cx="452.288" cy="200.735" r="22.81"/>
			<g>
				<circle style="fill:none;stroke:#00E676;stroke-width:2;stroke-miterlimit:10;" cx="292.064" cy="48.062" r="21.85"/>
				
					<ellipse transform="matrix(0.7071 -0.7071 0.7071 0.7071 69.7478 228.1316)" style="fill:#212121;" cx="310.253" cy="29.873" rx="13.183" ry="13.183"/>
			</g>
			<g>
				<path style="fill:none;stroke:#00E676;stroke-width:9;stroke-miterlimit:10;" d="M127.642,154.044
					c7.414,0,14.127,3.005,18.986,7.864c4.859,4.859,7.864,11.571,7.864,18.986s-3.005,14.127-7.864,18.986
					c-4.859,4.859-11.571,7.864-18.986,7.864s-14.127-3.005-18.986-7.864c-4.859-4.859-7.864-11.571-7.864-18.986"/>
				
					<ellipse transform="matrix(0.7351 -0.6779 0.6779 0.7351 -88.8236 134.4415)" style="fill:#212121;" cx="127.642" cy="180.894" rx="13.183" ry="13.183"/>
			</g>
			<line style="fill:none;stroke:#00E676;stroke-width:2;" x1="338.067" y1="460.794" x2="431.912" y2="460.794"/>
			<line style="fill:none;stroke:#00E676;stroke-width:2;" x1="448.899" y1="460.794" x2="479.493" y2="460.794"/>
			<line style="fill:none;stroke:#212121;stroke-width:2;" x1="387.026" y1="116.668" x2="247.859" y2="116.668"/>
			<line style="fill:none;stroke:#212121;stroke-width:2;" x1="721.872" y1="465.296" x2="721.872" y2="368.879"/>
			<line style="fill:none;stroke:#212121;stroke-width:2;" x1="235.986" y1="39.808" x2="235.986" y2="-56.609"/>
			<line style="fill:none;stroke:#212121;stroke-width:2;" x1="387.026" y1="105.419" x2="247.859" y2="105.419"/>
			<g>
				<defs>
					<circle id="SVGID_00000051372465855205062010000004055463030490096313_" cx="688.106" cy="57.905" r="33.766"/>
				</defs>
				<clipPath id="SVGID_00000041253162403568039970000001692627961846133920_">
					<use xlink:href="#SVGID_00000051372465855205062010000004055463030490096313_"  style="overflow:visible;"/>
				</clipPath>
				<g style="clip-path:url(#SVGID_00000041253162403568039970000001692627961846133920_);">
					
						<rect x="609.444" y="29.173" transform="matrix(0.7071 -0.7071 0.7071 0.7071 172.6387 484.3635)" style="fill:#00E676;" width="123.106" height="9.232"/>
					
						<rect x="619.75" y="39.479" transform="matrix(0.7071 -0.7071 0.7071 0.7071 168.3697 494.6697)" style="fill:#00E676;" width="123.107" height="9.232"/>
					
						<rect x="630.057" y="49.785" transform="matrix(0.7071 -0.7071 0.7071 0.7071 164.1002 504.9753)" style="fill:#00E676;" width="123.107" height="9.232"/>
					
						<rect x="640.363" y="60.091" transform="matrix(0.7071 -0.7071 0.7071 0.7071 159.8312 515.2815)" style="fill:#00E676;" width="123.107" height="9.232"/>
					
						<rect x="650.669" y="70.398" transform="matrix(0.7071 -0.7071 0.7071 0.7071 155.5625 525.5881)" style="fill:#00E676;" width="123.106" height="9.232"/>
				</g>
			</g>
			<g>
				<defs>
					
						<ellipse id="SVGID_00000170986219059268399920000011504744868007666362_" transform="matrix(0.9205 -0.3907 0.3907 0.9205 -160.3479 101.2186)" cx="168.61" cy="444.727" rx="33.766" ry="33.766"/>
				</defs>
				<clipPath id="SVGID_00000047050783099076848100000010164870037470259606_">
					<use xlink:href="#SVGID_00000170986219059268399920000011504744868007666362_"  style="overflow:visible;"/>
				</clipPath>
				<g style="clip-path:url(#SVGID_00000047050783099076848100000010164870037470259606_);">
					<g>
						<polyline style="fill:none;stroke:#FFFFFF;stroke-width:7;stroke-miterlimit:10;" points="99.777,402.961 122.72,418.961 
							145.663,402.961 168.606,418.961 191.549,402.961 214.497,418.961 237.444,402.961 						"/>
					</g>
					<g>
						<polyline style="fill:none;stroke:#FFFFFF;stroke-width:7;stroke-miterlimit:10;" points="99.777,416.467 122.72,432.467 
							145.663,416.467 168.606,432.467 191.549,416.467 214.497,432.467 237.444,416.467 						"/>
					</g>
					<g>
						<polyline style="fill:none;stroke:#FFFFFF;stroke-width:7;stroke-miterlimit:10;" points="99.777,429.974 122.72,445.974 
							145.663,429.974 168.606,445.974 191.549,429.974 214.497,445.974 237.444,429.974 						"/>
					</g>
					<g>
						<polyline style="fill:none;stroke:#FFFFFF;stroke-width:7;stroke-miterlimit:10;" points="99.777,443.48 122.72,459.48 
							145.663,443.48 168.606,459.48 191.549,443.48 214.497,459.48 237.444,443.48 						"/>
					</g>
					<g>
						<polyline style="fill:none;stroke:#FFFFFF;stroke-width:7;stroke-miterlimit:10;" points="99.777,456.987 122.72,472.987 
							145.663,456.987 168.606,472.987 191.549,456.987 214.497,472.987 237.444,456.987 						"/>
					</g>
					<g>
						<polyline style="fill:none;stroke:#FFFFFF;stroke-width:7;stroke-miterlimit:10;" points="99.777,470.493 122.72,486.493 
							145.663,470.493 168.606,486.493 191.549,470.493 214.497,486.493 237.444,470.493 						"/>
					</g>
				</g>
			</g>
			<g>
				
					<ellipse transform="matrix(0.2204 -0.9754 0.9754 0.2204 -310.2924 304.1001)" style="fill:none;stroke:#212121;stroke-width:2;stroke-linecap:round;stroke-linejoin:round;stroke-miterlimit:10;" cx="35.091" cy="346.161" rx="7.619" ry="7.619"/>
				
					<ellipse transform="matrix(0.1602 -0.9871 0.9871 0.1602 -290.7759 350.5557)" style="fill:#212121;stroke:#212121;stroke-width:2;stroke-linecap:round;stroke-linejoin:round;stroke-miterlimit:10;" cx="60.626" cy="346.161" rx="7.619" ry="7.619"/>
				
					<ellipse transform="matrix(0.7071 -0.7071 0.7071 0.7071 -219.5364 162.3138)" style="fill:none;stroke:#00E676;stroke-width:2;stroke-miterlimit:10;" cx="86.162" cy="346.161" rx="7.619" ry="7.619"/>
				
					<ellipse transform="matrix(0.7071 -0.7071 0.7071 0.7071 -212.0573 180.3701)" style="fill:#00E676;stroke:#00E676;stroke-width:2;stroke-miterlimit:10;" cx="111.697" cy="346.161" rx="7.619" ry="7.619"/>
			</g>
			<g>
				
					<rect x="709.783" y="197.74" style="fill:none;stroke:#212121;stroke-width:2;stroke-miterlimit:10;" width="12.089" height="12.089"/>
				
					<rect x="709.783" y="222.451" style="fill:#212121;stroke:#212121;stroke-width:2;stroke-miterlimit:10;" width="12.089" height="12.089"/>
				
					<rect x="709.783" y="247.163" style="fill:none;stroke:#00E676;stroke-width:2;stroke-miterlimit:10;" width="12.089" height="12.089"/>
				
					<rect x="709.783" y="271.875" style="fill:#00E676;stroke:#00E676;stroke-width:2;stroke-miterlimit:10;" width="12.089" height="12.089"/>
			</g>
			<g>
				<circle style="fill:#00E676;" cx="186.291" cy="88.144" r="39.282"/>
				<g>
					
						<circle style="fill:none;stroke:#212121;stroke-width:3;stroke-linecap:round;stroke-linejoin:round;stroke-dasharray:0,8.9979;" cx="163.546" cy="65.399" r="53"/>
					
						<path style="fill:none;stroke:#212121;stroke-width:3;stroke-linecap:round;stroke-linejoin:round;stroke-dasharray:0,9.0805;" d="
						M121.146,66.299c-0.311-11.715,3.846-22.711,11.519-30.881c7.673-8.17,18.676-13.319,30.881-13.319
						c23.914,0,43.3,19.386,43.3,43.3c0,23.665-19.084,42.873-42.664,43.036C140.603,108.598,121.767,89.709,121.146,66.299z"/>
					
						<path style="fill:none;stroke:#FFFFFF;stroke-width:3;stroke-linecap:round;stroke-linejoin:round;stroke-dasharray:0,9.1631;" d="
						M131.746,67.199c-0.623-8.815,1.759-17.537,7.514-24.286c5.755-6.749,14.511-11.114,24.286-11.114
						c18.557,0,33.6,15.043,33.6,33.6c0,18.06-14.439,32.747-32.327,33.073C146.931,98.797,132.984,84.725,131.746,67.199z"/>
					
						<path style="fill:none;stroke:#FFFFFF;stroke-width:3;stroke-linecap:round;stroke-linejoin:round;stroke-dasharray:0,9.2457;" d="
						M142.346,68.099c-0.942-5.967-0.327-12.363,3.509-17.691c3.836-5.328,10.345-8.909,17.691-8.909c13.2,0,23.9,10.7,23.9,23.9
						c0,12.454-9.794,22.62-21.991,23.109C153.258,88.997,144.175,79.688,142.346,68.099z"/>
					
						<path style="fill:none;stroke:#FFFFFF;stroke-width:3;stroke-linecap:round;stroke-linejoin:round;stroke-dasharray:0,9.4883;" d="
						M151.446,69.899c-1.209-2.5-0.913-8.089,1.005-11.995c1.918-3.906,6.18-6.705,11.095-6.705c7.842,0,14.2,6.358,14.2,14.2
						c0,6.848-5.149,12.494-11.654,13.146C159.586,79.196,153.214,73.555,151.446,69.899z"/>
					<g>
						
							<path style="fill:none;stroke:#FFFFFF;stroke-width:3;stroke-linecap:round;stroke-linejoin:round;stroke-dasharray:0,9.4109;" d="
							M167.521,67.509c-1.165,2.195-3.89,3.03-6.085,1.864c-2.195-1.165-3.03-3.89-1.864-6.085c1.165-2.195,3.89-3.03,6.085-1.864
							C167.852,62.59,168.686,65.314,167.521,67.509z"/>
					</g>
				</g>
			</g>
		</g>
	</g>
</g>
</svg>
