<?xml version="1.0" encoding="utf-8"?>
<!-- Generator: Adobe Illustrator 27.5.0, SVG Export Plug-In . SVG Version: 6.00 Build 0)  -->
<svg version="1.1" xmlns="http://www.w3.org/2000/svg" xmlns:xlink="http://www.w3.org/1999/xlink" x="0px" y="0px"
	 viewBox="0 0 750 500" style="enable-background:new 0 0 750 500;" xml:space="preserve">
<g id="BACKGROUND">
	<g>
		<linearGradient id="SVGID_1_" gradientUnits="userSpaceOnUse" x1="738.5674" y1="-330.8839" x2="17.5465" y2="821.1154">
			<stop  offset="0.1134" style="stop-color:#04CC80"/>
			<stop  offset="0.3192" style="stop-color:#03B67F"/>
			<stop  offset="0.7448" style="stop-color:#017E7C"/>
			<stop  offset="0.9295" style="stop-color:#00647A"/>
		</linearGradient>
		<rect style="fill:url(#SVGID_1_);" width="750" height="500"/>
	</g>
</g>
<g id="OBJECTS">
	<g style="opacity:0.8;">
		<defs>
			<rect id="SVGID_00000071558598860509871490000012447928835639799965_" style="opacity:0.8;" width="750" height="500"/>
		</defs>
		<clipPath id="SVGID_00000167397724361799033690000000602007592407033236_">
			<use xlink:href="#SVGID_00000071558598860509871490000012447928835639799965_"  style="overflow:visible;"/>
		</clipPath>
		<g style="clip-path:url(#SVGID_00000167397724361799033690000000602007592407033236_);">
			
				<linearGradient id="SVGID_00000158749402974343477300000005618956821330017961_" gradientUnits="userSpaceOnUse" x1="661.7776" y1="418.005" x2="659.7348" y2="39.1111">
				<stop  offset="0.455" style="stop-color:#086F6E"/>
				<stop  offset="0.8641" style="stop-color:#013C44"/>
			</linearGradient>
			<polygon style="opacity:0.6;fill:url(#SVGID_00000158749402974343477300000005618956821330017961_);" points="770.958,-42.624 
				549.697,-42.624 439.066,148.994 549.697,340.612 770.958,340.612 881.588,148.994 			"/>
			<polygon style="opacity:0.5;fill:none;stroke:#FFFFFF;stroke-miterlimit:10;" points="458.653,394.667 420.1,394.667 
				400.823,428.055 420.1,461.443 458.653,461.443 477.929,428.055 			"/>
			
				<linearGradient id="SVGID_00000090291992431452242470000017361437797503036064_" gradientUnits="userSpaceOnUse" x1="156.3701" y1="-199.7878" x2="156.3701" y2="157.8105">
				<stop  offset="0.455" style="stop-color:#086F6E"/>
				<stop  offset="0.8641" style="stop-color:#013C44"/>
			</linearGradient>
			<polygon style="opacity:0.6;fill:url(#SVGID_00000090291992431452242470000017361437797503036064_);" points="223.062,-42.937 
				89.679,-42.937 22.987,72.576 89.679,188.089 223.062,188.089 289.753,72.576 			"/>
			
				<linearGradient id="SVGID_00000148633608256202218770000010809552454890677159_" gradientUnits="userSpaceOnUse" x1="441.8674" y1="264.1757" x2="441.8674" y2="523.176">
				<stop  offset="0.455" style="stop-color:#086F6E"/>
				<stop  offset="0.8641" style="stop-color:#013C44"/>
			</linearGradient>
			<polygon style="opacity:0.6;fill:url(#SVGID_00000148633608256202218770000010809552454890677159_);" points="490.171,377.779 
				393.564,377.779 345.261,461.443 393.564,545.106 490.171,545.106 538.474,461.443 			"/>
			
				<linearGradient id="SVGID_00000182491878530664018460000017801723576125990284_" gradientUnits="userSpaceOnUse" x1="82.5681" y1="152.7549" x2="82.5681" y2="445.7388">
				<stop  offset="0.455" style="stop-color:#086F6E"/>
				<stop  offset="0.8641" style="stop-color:#013C44"/>
			</linearGradient>
			<polygon style="opacity:0.6;fill:url(#SVGID_00000182491878530664018460000017801723576125990284_);" points="137.209,281.265 
				27.927,281.265 -26.714,375.906 27.927,470.547 137.209,470.547 191.85,375.906 			"/>
			<polygon style="opacity:0.1;" points="543.557,18.941 525.311,18.941 516.187,34.744 525.311,50.546 543.557,50.546 
				552.681,34.744 			"/>
			<polygon style="opacity:0.1;" points="131.22,439.549 112.973,439.549 103.85,455.351 112.973,471.154 131.22,471.154 
				140.343,455.351 			"/>
			<polygon style="opacity:0.1;" points="458.792,91.793 440.545,91.793 431.421,107.595 440.545,123.397 458.792,123.397 
				467.915,107.595 			"/>
			<polygon style="opacity:0.1;" points="703.776,108.886 685.529,108.886 676.406,124.688 685.529,140.49 703.776,140.49 
				712.899,124.688 			"/>
			<polygon style="opacity:0.1;" points="205.995,360.103 187.748,360.103 178.625,375.906 187.748,391.708 205.995,391.708 
				215.118,375.906 			"/>
			<polygon style="opacity:0.1;" points="416.023,321.856 397.777,321.856 388.653,337.658 397.777,353.46 416.023,353.46 
				425.147,337.658 			"/>
			<polygon style="opacity:0.1;fill:none;stroke:#000000;stroke-miterlimit:10;" points="725.836,15.184 707.589,15.184 
				698.465,30.986 707.589,46.789 725.836,46.789 734.959,30.986 			"/>
			<polygon style="opacity:0.1;fill:none;stroke:#000000;stroke-miterlimit:10;" points="594.645,99.022 583.255,99.022 
				577.56,108.886 583.255,118.75 594.645,118.75 600.34,108.886 			"/>
			<polygon style="opacity:0.1;fill:none;stroke:#000000;stroke-miterlimit:10;" points="309.272,199.267 297.882,199.267 
				292.187,209.131 297.882,218.995 309.272,218.995 314.967,209.131 			"/>
			<polygon style="opacity:0.1;fill:none;stroke:#000000;stroke-miterlimit:10;" points="66.753,382.368 55.363,382.368 
				49.668,392.233 55.363,402.096 66.753,402.096 72.448,392.233 			"/>
			<g>
				<polygon style="opacity:0.1;fill:none;stroke:#000000;stroke-miterlimit:10;" points="298.051,288.865 249.06,288.865 
					224.565,331.293 249.06,373.72 298.051,373.72 322.547,331.293 				"/>
				<polygon style="opacity:0.1;fill:none;stroke:#000000;stroke-miterlimit:10;" points="294.77,294.549 252.342,294.549 
					231.128,331.293 252.342,368.037 294.77,368.037 315.984,331.293 				"/>
				<polygon style="opacity:0.1;fill:none;stroke:#000000;stroke-miterlimit:10;" points="291.478,300.251 255.634,300.251 
					237.712,331.293 255.634,362.334 291.478,362.334 309.4,331.293 				"/>
			</g>
			<g>
				<polygon style="opacity:0.1;fill:none;stroke:#000000;stroke-miterlimit:10;" points="333.115,349.805 284.124,349.805 
					259.628,392.233 284.124,434.66 333.115,434.66 357.61,392.233 				"/>
				<polygon style="opacity:0.1;fill:none;stroke:#000000;stroke-miterlimit:10;" points="329.833,355.488 287.405,355.488 
					266.191,392.233 287.405,428.976 329.833,428.976 351.047,392.233 				"/>
				<polygon style="opacity:0.1;fill:none;stroke:#000000;stroke-miterlimit:10;" points="326.541,361.191 290.697,361.191 
					272.776,392.233 290.697,423.274 326.541,423.274 344.463,392.233 				"/>
			</g>
			<g>
				<polygon style="opacity:0.1;fill:none;stroke:#000000;stroke-miterlimit:10;" points="346.413,15.404 297.422,15.404 
					272.927,57.831 297.422,100.259 346.413,100.259 370.909,57.831 				"/>
				<polygon style="opacity:0.1;fill:none;stroke:#000000;stroke-miterlimit:10;" points="343.132,21.087 300.704,21.087 
					279.489,57.831 300.704,94.575 343.132,94.575 364.346,57.831 				"/>
				<polygon style="opacity:0.1;fill:none;stroke:#000000;stroke-miterlimit:10;" points="339.84,26.79 303.996,26.79 
					286.074,57.831 303.996,88.873 339.84,88.873 357.761,57.831 				"/>
			</g>
			<g>
				<polygon style="opacity:0.1;fill:none;stroke:#000000;stroke-miterlimit:10;" points="377.064,73.879 328.072,73.879 
					303.577,116.307 328.072,158.734 377.064,158.734 401.559,116.307 				"/>
				<polygon style="opacity:0.1;fill:none;stroke:#000000;stroke-miterlimit:10;" points="373.782,79.563 331.354,79.563 
					310.14,116.307 331.354,153.051 373.782,153.051 394.996,116.307 				"/>
				<polygon style="opacity:0.1;fill:none;stroke:#000000;stroke-miterlimit:10;" points="370.49,85.265 334.646,85.265 
					316.724,116.307 334.646,147.348 370.49,147.348 388.412,116.307 				"/>
			</g>
			<g style="opacity:0.5;">
				<g>
					<g>
						<path style="fill:#FFFFFF;" d="M156.736,181.538H60.692l-0.216-0.374L12.669,98.361l48.022-83.177h96.045l0.216,0.373
							l47.806,82.803L156.736,181.538z M61.554,180.044h94.32l47.159-81.683l-47.159-81.683h-94.32L14.395,98.361L61.554,180.044z"
							/>
					</g>
					<g>
						<path style="fill:#FFFFFF;" d="M150.282,170.359H67.146l-0.187-0.323L25.578,98.361l41.568-71.998h83.136l0.187,0.323
							l41.381,71.675L150.282,170.359z M67.892,169.066h81.643l40.821-70.705l-40.821-70.705H67.892L27.071,98.361L67.892,169.066z"
							/>
					</g>
					<g>
						<path style="fill:#FFFFFF;" d="M143.669,158.906H73.758l-0.157-0.272L38.803,98.361l34.955-60.544h69.911l0.157,0.272
							l34.798,60.272L143.669,158.906z M74.386,157.818h68.655l34.327-59.457l-34.327-59.457H74.386L40.059,98.361L74.386,157.818z"
							/>
					</g>
					<g>
						<path style="fill:#FFFFFF;" d="M137.947,148.994H79.481l-0.131-0.227L50.248,98.361l29.233-50.632h58.465l0.132,0.227
							l29.101,50.405L137.947,148.994z M80.006,148.084h57.416l28.707-49.723l-28.707-49.723H80.006L51.299,98.361L80.006,148.084z"
							/>
					</g>
					<g>
						<path style="fill:#FFFFFF;" d="M132.542,139.633H84.886l-0.107-0.185L61.058,98.361L84.886,57.09h47.656l0.107,0.185
							l23.721,41.086L132.542,139.633z M85.314,138.891h46.8l23.4-40.53l-23.4-40.53h-46.8l-23.4,40.53L85.314,138.891z"/>
					</g>
				</g>
				<g>
					<g>
						<path style="fill:#FFFFFF;" d="M212.233,277.521h-96.045l-0.216-0.373l-47.806-82.804l48.022-83.177h96.045l0.216,0.374
							l47.806,82.803L212.233,277.521z M117.051,276.027h94.32l47.159-81.683l-47.159-81.683h-94.32l-47.159,81.683L117.051,276.027
							z"/>
					</g>
					<g>
						<path style="fill:#FFFFFF;" d="M205.779,266.342h-83.136l-0.187-0.323l-41.381-71.675l41.568-71.998h83.136l0.187,0.323
							l41.381,71.675L205.779,266.342z M123.389,265.049h81.643l40.821-70.705l-40.821-70.705h-81.643l-40.821,70.705
							L123.389,265.049z"/>
					</g>
					<g>
						<path style="fill:#FFFFFF;" d="M199.166,254.889h-69.911l-0.157-0.272L94.3,194.344l34.955-60.544h69.911l0.157,0.272
							l34.798,60.272L199.166,254.889z M129.883,253.801h68.655l34.327-59.457l-34.327-59.457h-68.655l-34.327,59.457
							L129.883,253.801z"/>
					</g>
					<g>
						<path style="fill:#FFFFFF;" d="M193.444,244.977h-58.466l-0.132-0.227l-29.101-50.405l29.233-50.633h58.466l0.132,0.227
							l29.101,50.405L193.444,244.977z M135.503,244.067h57.416l28.707-49.723l-28.707-49.723h-57.416l-28.707,49.723
							L135.503,244.067z"/>
					</g>
					<g>
						<path style="fill:#FFFFFF;" d="M188.039,235.616h-47.656l-0.107-0.185l-23.721-41.086l23.828-41.271h47.656l0.107,0.185
							l23.721,41.086L188.039,235.616z M140.811,234.874h46.8l23.4-40.53l-23.4-40.53h-46.8l-23.4,40.53L140.811,234.874z"/>
					</g>
				</g>
			</g>
			<polygon style="opacity:0.5;fill:none;stroke:#FFFFFF;stroke-miterlimit:10;" points="253.582,69.72 229.652,69.72 
				217.688,90.444 229.652,111.167 253.582,111.167 265.546,90.444 			"/>
			<polygon style="opacity:0.5;fill:none;stroke:#FFFFFF;stroke-miterlimit:10;" points="57.927,206.489 33.998,206.489 
				22.033,227.213 33.998,247.936 57.927,247.936 69.892,227.213 			"/>
			<g style="opacity:0.5;">
				<g>
					<polygon style="fill:#FFFFFF;" points="249.101,471.154 234.122,462.505 234.122,479.802 					"/>
				</g>
				<g>
					<path style="fill:#FFFFFF;" d="M257.449,480.453v-18.6l16.107,9.3L257.449,480.453z M258.201,463.156v15.994l13.851-7.997
						L258.201,463.156z"/>
				</g>
				<g>
					<polygon style="fill:#FFFFFF;" points="296.507,471.154 281.528,462.505 281.528,479.802 					"/>
				</g>
				<g>
					<path style="fill:#FFFFFF;" d="M304.855,480.453v-18.6l16.107,9.3L304.855,480.453z M305.607,463.156v15.994l13.851-7.997
						L305.607,463.156z"/>
				</g>
			</g>
			<g style="opacity:0.5;">
				<g>
					<polygon style="fill:#FFFFFF;" points="82.18,324.18 67.201,315.531 67.201,332.828 					"/>
				</g>
				<g>
					<path style="fill:#FFFFFF;" d="M90.528,333.48v-18.6l16.107,9.3L90.528,333.48z M91.28,316.183v15.994l13.851-7.997
						L91.28,316.183z"/>
				</g>
				<g>
					<polygon style="fill:#FFFFFF;" points="129.586,324.18 114.607,315.531 114.607,332.828 					"/>
				</g>
				<g>
					<path style="fill:#FFFFFF;" d="M137.934,333.48v-18.6l16.107,9.3L137.934,333.48z M138.686,316.183v15.994l13.851-7.997
						L138.686,316.183z"/>
				</g>
			</g>
			<g style="opacity:0.5;">
				<g>
					<polygon style="fill:#FFFFFF;" points="635.872,64.579 620.893,55.931 620.893,73.228 					"/>
				</g>
				<g>
					<path style="fill:#FFFFFF;" d="M644.22,73.879v-18.6l16.107,9.3L644.22,73.879z M644.972,56.582v15.994l13.851-7.997
						L644.972,56.582z"/>
				</g>
				<g>
					<polygon style="fill:#FFFFFF;" points="683.279,64.579 668.299,55.931 668.299,73.228 					"/>
				</g>
				<g>
					<path style="fill:#FFFFFF;" d="M691.626,73.879v-18.6l16.107,9.3L691.626,73.879z M692.378,56.582v15.994l13.851-7.997
						L692.378,56.582z"/>
				</g>
			</g>
			<g style="opacity:0.5;">
				<g>
					<polygon style="fill:#FFFFFF;" points="336.543,194.562 321.563,185.914 321.563,203.211 					"/>
				</g>
				<g>
					<path style="fill:#FFFFFF;" d="M344.89,203.862v-18.6l16.107,9.3L344.89,203.862z M345.642,186.565v15.994l13.851-7.997
						L345.642,186.565z"/>
				</g>
				<g>
					<polygon style="fill:#FFFFFF;" points="383.949,194.562 368.969,185.914 368.969,203.211 					"/>
				</g>
				<g>
					<path style="fill:#FFFFFF;" d="M392.297,203.862v-18.6l16.107,9.3L392.297,203.862z M393.049,186.565v15.994l13.851-7.997
						L393.049,186.565z"/>
				</g>
			</g>
			<g style="opacity:0.5;">
				<g>
					<g>
						<path style="fill:#FFFFFF;" d="M658.143,415.47H497.945l-0.36-0.623l-79.739-138.113l80.099-138.736h160.199l0.36,0.623
							l79.739,138.113L658.143,415.47z M499.383,412.978h157.322l78.66-136.244l-78.66-136.243H499.383l-78.66,136.243
							L499.383,412.978z"/>
					</g>
					<g>
						<path style="fill:#FFFFFF;" d="M647.378,396.824H508.71l-0.312-0.539l-69.022-119.551l69.334-120.09h138.668l0.312,0.539
							l69.022,119.55L647.378,396.824z M509.955,394.667h136.178l68.088-117.933l-68.088-117.932H509.955l-68.088,117.932
							L509.955,394.667z"/>
					</g>
					<g>
						<path style="fill:#FFFFFF;" d="M636.348,377.72H519.74l-0.262-0.453l-58.042-100.533l58.304-100.986h116.608l0.262,0.454
							l58.042,100.532L636.348,377.72z M520.787,375.906h114.514l57.256-99.172l-57.256-99.171H520.787l-57.256,99.171
							L520.787,375.906z"/>
					</g>
					<g>
						<path style="fill:#FFFFFF;" d="M626.803,361.187h-97.518l-0.219-0.379l-48.54-84.074l48.759-84.453h97.518l0.219,0.379
							l48.54,84.074L626.803,361.187z M530.161,359.67h95.767l47.883-82.936l-47.883-82.936h-95.767l-47.883,82.936L530.161,359.67z
							"/>
					</g>
					<g>
						<path style="fill:#FFFFFF;" d="M617.789,345.573H538.3l-0.179-0.309l-39.566-68.53l39.744-68.839h79.489l0.179,0.309
							l39.566,68.53L617.789,345.573z M539.014,344.337h78.061l39.03-67.603l-39.03-67.602h-78.061l-39.03,67.602L539.014,344.337z"
							/>
					</g>
				</g>
				<g>
					<g>
						<path style="fill:#FFFFFF;" d="M750.71,575.566H590.512l-0.36-0.623l-79.739-138.113l80.099-138.736H750.71l0.36,0.623
							l79.739,138.113L750.71,575.566z M591.95,573.073h157.322l78.66-136.244l-78.66-136.243H591.95l-78.66,136.243L591.95,573.073
							z"/>
					</g>
					<g>
						<path style="fill:#FFFFFF;" d="M739.945,556.92H601.277l-0.312-0.539l-69.022-119.551l69.334-120.09h138.668l0.312,0.539
							l69.022,119.551L739.945,556.92z M602.522,554.762H738.7l68.088-117.933L738.7,318.897H602.522l-68.088,117.933
							L602.522,554.762z"/>
					</g>
					<g>
						<path style="fill:#FFFFFF;" d="M728.915,537.815H612.307l-0.262-0.454l-58.042-100.533l58.304-100.986h116.608l0.262,0.454
							l58.042,100.532L728.915,537.815z M613.354,536.001h114.514l57.256-99.172l-57.256-99.171H613.354l-57.256,99.171
							L613.354,536.001z"/>
					</g>
					<g>
						<path style="fill:#FFFFFF;" d="M719.37,521.283h-97.518l-0.219-0.379l-48.54-84.074l48.759-84.453h97.518l0.219,0.379
							l48.54,84.074L719.37,521.283z M622.727,519.766h95.767l47.883-82.936l-47.883-82.936h-95.767l-47.883,82.936L622.727,519.766
							z"/>
					</g>
					<g>
						<path style="fill:#FFFFFF;" d="M710.355,505.669h-79.489l-0.179-0.309l-39.566-68.53l39.744-68.839h79.489l0.179,0.309
							l39.566,68.53L710.355,505.669z M631.58,504.432h78.061l39.03-67.603l-39.03-67.602H631.58l-39.03,67.602L631.58,504.432z"/>
					</g>
				</g>
			</g>
		</g>
	</g>
</g>
</svg>
